# This file uses centimeters as units for non-parametric coordinates.

mtllib Rock3_LOW.mtl
g default
v -2.193221 3.041480 1.286788
v -1.300168 3.166162 -0.811958
v -0.672570 -2.102889 -1.817980
v -1.198730 -1.585135 2.342078
v -1.398179 1.203729 -1.499056
v -1.644759 1.210031 2.350316
v -1.672921 4.955930 1.008882
v -1.652040 4.930564 -0.659450
v -0.281642 -3.459966 -1.227690
v -0.382773 -4.041296 0.359013
v 0.985647 -3.418590 -0.994014
v 0.809066 -3.804779 0.215328
v 0.460912 -1.217321 2.347460
v 1.163171 -1.278741 -1.391472
v 0.333874 0.879416 -1.476581
v -0.464911 3.288122 -1.876302
v -0.497920 5.005357 -0.553995
v -0.759654 4.984748 0.997625
v -0.861485 3.530364 1.596958
v 0.504777 1.782634 2.395459
v -2.268346 3.103386 0.172442
v -1.363185 5.567039 0.227832
v -0.458556 5.142325 0.118863
v 0.703898 3.302554 0.424632
v 1.428757 2.132345 1.626286
v 1.597853 -0.918050 0.610326
v 1.302895 -4.181772 -0.265721
v -0.440228 -4.542233 -0.387471
v -1.645722 -2.822500 -0.254231
v -1.852740 0.016773 0.179603
vt 0.589592 0.285927
vt 0.937118 0.868654
vt 0.879105 0.848366
vt 0.890834 0.755980
vt 0.618278 0.135927
vt 0.897204 0.612583
vt 0.720005 0.560603
vt 0.854555 0.926030
vt 0.682552 0.053615
vt 0.895863 0.547214
vt 0.778419 0.056845
vt 0.837333 0.535554
vt 0.700211 0.090252
vt 0.759881 0.087076
vt 0.763819 0.229528
vt 0.693889 0.227753
vt 0.812919 0.625597
vt 0.816222 0.722354
vt 0.830835 0.823166
vt 0.806409 0.903504
vt 0.766171 0.538907
vt 0.732380 0.445647
vt 0.731802 0.513842
vt 0.690371 0.516453
vt 0.666007 0.429115
vt 0.786166 0.353954
vt 0.690351 0.341363
vt 0.837399 0.366591
vt 0.850259 0.206057
vt 0.824733 0.453482
vt 0.980084 0.723048
vt 0.616681 0.443522
vt 0.974435 0.583385
vt 0.904238 0.484049
vt 0.820103 0.489870
vt 0.721187 0.621873
vt 0.664796 0.764510
vt 0.722479 0.827592
vt 0.782713 0.921131
vt 0.871238 0.973623
vt 0.695700 0.050148
vt 0.928286 0.495263
vt 0.668917 0.558083
vt 0.811215 0.958477
vn -0.988475 -0.107084 -0.107007
vn -0.985590 0.022055 -0.167707
vn -0.727280 0.093005 -0.680011
vn -0.629375 -0.001878 -0.777100
vn -0.946565 -0.308885 -0.092766
vn -0.450709 -0.133291 -0.882664
vn -0.669447 0.727836 -0.148646
vn -0.705600 0.331729 -0.626167
vn -0.526051 -0.838539 -0.141859
vn -0.181319 -0.458895 -0.869792
vn 0.889614 -0.456709 -0.001811
vn 0.719971 -0.263149 -0.642179
vn -0.303671 -0.681563 0.665774
vn 0.508829 -0.496505 0.703261
vn 0.395026 -0.248417 0.884445
vn -0.570873 -0.313832 0.758692
vn 0.718205 0.079085 -0.691323
vn 0.647443 0.183937 -0.739584
vn 0.514682 0.261633 -0.816487
vn 0.545966 0.548743 -0.633089
vn 0.783911 0.620228 0.028295
vn 0.105909 0.469073 0.876786
vn 0.399259 0.492754 0.773166
vn -0.717009 0.470185 0.514611
vn -0.839936 0.130032 0.526877
vn 0.376309 0.193557 0.906050
vn -0.650043 0.009226 0.759842
vn 0.943170 0.291623 0.159332
vn 0.996807 0.017719 0.077863
vn 0.908158 0.399097 -0.126376
s 1
g Rock3_LOW
usemtl initialShadingGroup
f 30/31/1 21/2/2 2/3/3 5/4/4
f 29/33/5 30/31/1 5/4/4 3/6/6
f 2/3/3 21/2/2 22/40/7 8/8/8
f 28/42/9 29/33/5 3/6/6 9/10/10
f 27/35/11 28/34/9 9/10/10 11/12/12
f 10/13/13 12/14/14 13/15/15 4/16/16
f 11/12/12 9/10/10 3/6/6 14/17/17
f 15/18/18 14/17/17 3/6/6 5/4/4
f 16/19/19 15/18/18 5/4/4 2/3/3
f 17/20/20 16/19/19 2/3/3 8/8/8
f 17/20/20 8/8/8 22/44/7 23/39/21
f 19/22/22 18/23/23 7/24/24 1/25/25
f 20/26/26 19/22/22 1/25/25 6/27/27
f 13/15/15 20/26/26 6/27/27 4/16/16
f 25/37/28 26/36/29 14/17/17 15/18/18
f 16/19/19 24/38/30 25/37/28 15/18/18
f 17/20/20 23/39/21 24/38/30 16/19/19
f 11/12/12 14/17/17 26/36/29 27/35/11
f 22/43/7 21/32/2 1/25/25 7/24/24
f 23/21/21 22/7/7 7/24/24 18/23/23
f 24/30/30 23/21/21 18/23/23 19/22/22
f 25/28/28 24/30/30 19/22/22 20/26/26
f 20/26/26 13/15/15 26/29/29 25/28/28
f 27/11/11 26/29/29 13/15/15 12/14/14
f 10/13/13 28/41/9 27/11/11 12/14/14
f 4/16/16 29/5/5 28/9/9 10/13/13
f 6/27/27 30/1/1 29/5/5 4/16/16
f 1/25/25 21/32/2 30/1/1 6/27/27
