# This file uses centimeters as units for non-parametric coordinates.

mtllib Rock2_LOW.mtl
g default
v -3.563811 0.502158 0.502975
v -3.867943 -0.571493 -0.795720
v 3.376600 -0.540180 0.788231
v 3.555346 0.712262 0.604484
v -0.066666 -1.004135 0.150852
v -0.198645 0.640810 0.562235
v -6.168575 0.928571 -0.867069
v -6.342650 0.224480 -1.092127
v -0.104660 2.414121 0.600955
v -3.049204 1.780904 0.613290
v 3.059229 2.667624 -0.164578
v 0.833208 -1.812874 -0.228813
v 2.777309 -1.447413 0.163224
v 4.903753 0.251157 -1.914097
v 5.270933 1.009513 -1.737355
v 3.007982 2.782741 -2.017227
v 3.272562 -0.919130 -2.288071
v 0.054399 -0.391977 -1.886420
v 1.175632 -1.488986 -2.269604
v -3.855678 -0.324090 -1.708529
v -6.373061 0.613402 -1.589563
v 0.923042 2.625233 -0.944316
v -2.949342 1.576222 -1.273638
v -4.900614 0.961091 -0.960174
v -4.894908 0.994192 -1.426815
v -6.324216 0.892063 -1.523736
v 4.977880 -0.106502 -0.142909
v 3.334265 -1.705577 -0.777040
v 0.993464 -1.651665 -1.370647
v -0.096025 -0.492167 -0.976494
v -3.861143 -0.450996 -1.211712
v -6.462405 0.342217 -1.335911
v -6.290132 0.967688 -1.157873
v -4.893059 0.943471 -1.173357
v -2.742367 0.965530 -0.468346
v -0.004686 2.709977 -0.522740
v 3.215508 3.293119 -1.161680
v 4.923508 1.113595 -0.420990
v 1.832104 1.072693 -2.839337
v 2.484015 -0.415254 -2.876439
v 0.606876 1.903273 -2.502593
v -3.147741 0.869668 -1.793568
v -4.875740 0.908538 -1.703794
v -2.041743 -0.547909 -0.559163
v -1.947092 -0.710387 -1.094875
v -1.865869 -0.311041 -1.750822
v -0.900814 1.600124 -2.203583
v -1.296949 2.302511 -1.443781
v -1.399384 1.963337 -0.518950
v -1.440701 2.144927 0.111701
v -1.868324 0.794093 0.954981
vt 0.263629 0.794562
vt 0.263879 0.703306
vt 0.362972 0.722746
vt 0.335638 0.796781
vt 0.499396 0.791620
vt 0.496722 0.843511
vt 0.175806 0.701985
vt 0.193745 0.772749
vt 0.066938 0.757177
vt 0.064134 0.724911
vt 0.268251 0.869039
vt 0.327858 0.877725
vt 0.459382 0.926283
vt 0.416061 0.700546
vt 0.490412 0.741912
vt 0.562554 0.883866
vt 0.586269 0.523459
vt 0.520113 0.483949
vt 0.532878 0.449205
vt 0.413828 0.398234
vt 0.466932 0.978674
vt 0.462925 0.549379
vt 0.533607 0.715483
vt 0.433062 0.652889
vt 0.349900 0.666588
vt 0.312344 0.582538
vt 0.386181 0.596645
vt 0.218794 0.616731
vt 0.222138 0.582158
vt 0.024174 0.571374
vt 0.135100 0.587359
vt 0.133801 0.609978
vt 0.051913 0.718938
vt 0.267593 0.386511
vt 0.312865 0.391492
vt 0.228376 0.451217
vt 0.254963 0.895960
vt 0.104759 0.795796
vt 0.210220 0.826255
vt 0.076476 0.530797
vt 0.097345 0.801883
vt 0.178362 0.872967
vt 0.157046 0.487323
vt 0.052342 0.757848
vt 0.023615 0.559586
vt 0.378339 0.487221
vt 0.416305 0.537981
vt 0.319678 0.467721
vt 0.256804 0.491543
vt 0.081602 0.542922
vt 0.158138 0.529395
vt 0.202107 0.418091
vt 0.321204 0.928115
vt 0.263731 0.677803
vt 0.170645 0.683383
vt 0.547520 0.389046
vt 0.575310 0.823978
vt 0.417907 0.354067
vt 0.135510 0.445920
vt 0.071233 0.520729
vt 0.011986 0.548910
vt 0.016374 0.586254
vt 0.303901 0.623193
vt 0.388730 0.635964
vt 0.508327 0.607726
vt 0.592057 0.465997
vn -0.093975 -0.255710 0.962175
vn -0.094538 -0.836537 0.539693
vn -0.235088 -0.516140 0.823610
vn -0.033658 -0.030540 0.998967
vn 0.152324 -0.291608 0.944332
vn 0.199533 0.173064 0.964487
vn -0.241694 -0.781307 0.575451
vn -0.285864 -0.314889 0.905056
vn -0.478588 -0.269054 0.835801
vn -0.434289 -0.720774 0.540258
vn -0.302704 0.764947 0.568531
vn 0.007337 0.485330 0.874300
vn 0.212432 0.551297 0.806811
vn -0.252326 -0.864222 0.435260
vn 0.148368 -0.794304 0.589125
vn 0.713783 -0.302392 -0.631722
vn 0.792991 -0.022209 -0.608829
vn 0.974705 0.083036 0.207497
vn 0.841031 -0.510994 0.177631
vn 0.543798 -0.838366 -0.037767
vn 0.544485 -0.549500 -0.633709
vn 0.295567 0.624527 -0.722915
vn 0.367136 0.918329 0.147930
vn -0.230080 -0.947543 -0.221868
vn -0.361418 -0.893885 -0.265231
vn -0.299607 -0.405426 -0.863635
vn -0.136064 -0.746105 -0.651777
vn -0.018414 -0.968932 -0.246641
vn -0.074114 -0.444385 -0.892765
vn -0.376693 -0.084804 -0.922448
vn -0.116667 -0.415284 -0.902179
vn -0.165562 -0.933322 -0.318589
vn -0.505844 -0.758529 -0.410798
vn -0.164634 0.967612 0.191373
vn -0.200011 0.811481 -0.549084
vn -0.301098 0.885652 -0.353497
vn -0.417878 0.908501 0.002206
vn -0.249771 0.958077 0.140370
vn -0.261892 0.818572 0.511227
vn -0.229660 0.965294 -0.124357
vn -0.109815 0.993406 0.032958
vn -0.268930 0.956403 -0.113891
vn -0.395750 0.904608 -0.158326
vn -0.441618 0.891111 0.104382
vn -0.247845 0.902897 -0.351213
vn -0.075276 0.165057 -0.983407
vn 0.018408 -0.135984 -0.990540
vn -0.214288 0.401570 -0.890406
vn -0.164214 0.245487 -0.955390
vn -0.073873 0.167695 -0.983067
vn -0.136095 0.136867 -0.981196
s 1
g Rock2_LOW
usemtl initialShadingGroup
f 51/1/1 44/2/2 5/3/3 6/4/4
f 6/4/4 5/3/3 3/5/5 4/6/6
f 2/7/7 1/8/8 7/9/9 8/10/10
f 50/11/11 51/1/1 6/4/4 9/12/12
f 11/13/13 9/12/12 6/4/4 4/6/6
f 3/5/5 5/3/3 12/14/14 13/15/15
f 14/18/16 15/19/17 38/66/18 27/17/19 28/65/20 17/22/21
f 16/20/22 37/58/23 38/56/18 15/19/17
f 29/64/24 30/63/25 18/26/26 19/27/27
f 45/28/28 46/29/29 18/26/26 30/63/25
f 17/22/21 28/65/20 29/64/24 19/27/27
f 21/30/30 20/31/31 31/32/32 32/62/33
f 36/34/34 37/58/23 16/20/22 22/35/35
f 48/36/36 49/52/37 36/34/34 22/35/35
f 24/38/38 7/9/9 1/8/8 10/39/39
f 25/40/40 34/60/41 35/59/42 23/43/43
f 33/61/44 34/60/41 25/40/40 26/45/45 21/30/30 32/62/33
f 28/23/20 27/57/19 3/5/5 13/15/15
f 29/24/24 28/23/20 13/15/15 12/14/14
f 12/14/14 5/3/3 30/25/25 29/24/24
f 44/2/2 45/54/28 30/25/25 5/3/3
f 32/33/33 31/55/32 2/7/7 8/10/10
f 33/44/44 32/33/33 8/10/10 7/9/9
f 24/38/38 34/41/41 33/44/44 7/9/9
f 35/42/42 34/41/41 24/38/38 10/39/39
f 36/53/34 49/37/37 50/11/11 9/12/12
f 11/13/13 37/21/23 36/53/34 9/12/12
f 38/16/18 37/21/23 11/13/13 4/6/6
f 4/6/6 3/5/5 27/57/19 38/16/18
f 15/19/17 14/18/16 39/46/46 16/20/22
f 40/47/47 39/46/46 14/18/16 17/22/21
f 41/48/48 22/35/35 16/20/22 39/46/46
f 47/49/49 48/36/36 22/35/35 41/48/48
f 43/50/50 25/40/40 23/43/43 42/51/51
f 21/30/30 26/45/45 25/40/40 43/50/50
f 42/51/51 20/31/31 21/30/30 43/50/50
f 41/48/48 18/26/26 46/29/29 47/49/49
f 18/26/26 41/48/48 39/46/46 40/47/47
f 19/27/27 18/26/26 40/47/47 17/22/21
f 31/55/32 45/54/28 44/2/2 2/7/7
f 20/31/31 46/29/29 45/28/28 31/32/32
f 47/49/49 46/29/29 20/31/31 42/51/51
f 42/51/51 23/43/43 48/36/36 47/49/49
f 23/43/43 35/59/42 49/52/37 48/36/36
f 50/11/11 49/37/37 35/42/42 10/39/39
f 1/8/8 51/1/1 50/11/11 10/39/39
f 1/8/8 2/7/7 44/2/2 51/1/1
