# This file uses centimeters as units for non-parametric coordinates.

mtllib Bookshelf_Reg.mtl
g default
v -1.156251 -0.000563 -0.351310
v -1.156251 3.098573 -0.351310
v 1.204463 3.098573 -0.351310
v 1.204463 -0.000563 -0.351310
v 1.127249 3.098573 -0.351310
v 1.127249 -0.000563 -0.351310
v -1.079037 3.098573 -0.351310
v -1.079037 -0.000563 -0.351310
v -1.079037 3.005048 -0.216739
v -1.156251 3.005048 -0.351310
v -1.079037 3.005048 -0.351310
v 1.127249 3.005048 -0.351310
v 1.204463 3.005048 -0.351310
v 1.127249 3.005048 -0.216739
v -1.079037 0.092962 -0.216739
v -1.156251 0.092962 -0.351310
v -1.079037 0.092962 -0.351310
v 1.127249 0.092962 -0.351310
v 1.204463 0.092962 -0.351310
v 1.127249 0.092962 -0.216739
v -1.079037 -0.000563 0.351310
v -1.156251 -0.000563 0.351310
v -1.079037 0.092962 0.351310
v -1.156251 0.092962 0.351310
v 1.127249 -0.000563 0.351310
v 1.127249 0.092962 0.351310
v 1.204463 -0.000563 0.351310
v 1.204463 0.092962 0.351310
v -1.079037 3.005048 0.351310
v -1.156251 3.005048 0.351310
v -1.079037 3.098573 0.351310
v -1.156251 3.098573 0.351310
v 1.127249 3.005048 0.351310
v 1.127249 3.098573 0.351310
v 1.204463 3.005048 0.351310
v 1.204463 3.098573 0.351310
vt 0.024870 0.646821
vt 0.024811 0.639930
vt 0.076588 0.639490
vt 0.076646 0.646382
vt 0.026693 0.861416
vt 0.078469 0.860976
vt 0.026751 0.868308
vt 0.078528 0.867868
vt 0.302328 0.637572
vt 0.302386 0.644464
vt 0.250610 0.644904
vt 0.250551 0.638012
vt 0.304209 0.859058
vt 0.252432 0.859498
vt 0.304268 0.865950
vt 0.252491 0.866390
vt 0.741139 0.107674
vt 0.526543 0.109406
vt 0.526205 0.067545
vt 0.740801 0.065814
vt 0.363959 0.110718
vt 0.149364 0.112449
vt 0.149026 0.070589
vt 0.363622 0.068857
vt 0.084658 0.919596
vt 0.078968 0.919645
vt 0.084218 0.867820
vt 0.247241 0.918215
vt 0.246801 0.866439
vt 0.252931 0.918167
vt 0.076148 0.587713
vt 0.081838 0.587665
vt 0.082278 0.639441
vt 0.244421 0.586284
vt 0.244861 0.638060
vt 0.250111 0.586235
vt 0.903722 0.106362
vt 0.903385 0.064501
vt 0.082336 0.646333
vt 0.244920 0.644952
vt 0.084159 0.860928
vt 0.246742 0.859547
vt 0.470601 0.636143
vt 0.476291 0.636094
vt 0.476349 0.642986
vt 0.470660 0.643035
vt 0.478172 0.857581
vt 0.472483 0.857629
vt 0.308018 0.637524
vt 0.308076 0.644416
vt 0.478231 0.864473
vt 0.472541 0.864521
vt 0.309899 0.859010
vt 0.302328 0.637572
vt 0.309958 0.865902
vt 0.304268 0.865950
vt 0.905454 0.320957
vt 0.742870 0.322269
vn -1.000000 0.000000 0.000000
vn -1.000000 0.000000 0.000000
vn -1.000000 0.000000 0.000000
vn -1.000000 0.000000 0.000000
vn 0.000000 1.000000 0.000000
vn 0.000000 1.000000 0.000000
vn 0.000000 1.000000 0.000000
vn 0.000000 1.000000 0.000000
vn 1.000000 0.000000 0.000000
vn 1.000000 0.000000 0.000000
vn 1.000000 0.000000 0.000000
vn 1.000000 0.000000 0.000000
vn 0.000000 -1.000000 0.000000
vn 0.000000 -1.000000 0.000000
vn 0.000000 -1.000000 0.000000
vn 0.000000 -1.000000 0.000000
vn 0.000000 0.000000 1.000000
vn -0.000000 0.000000 1.000000
vn -0.000000 0.000000 1.000000
vn 0.000000 0.000000 1.000000
vn 0.000000 0.000000 -1.000000
vn 0.000000 0.000000 -1.000000
vn 0.000000 0.000000 -1.000000
vn 0.000000 0.000000 -1.000000
vn 0.000000 1.000000 0.000000
vn 0.000000 1.000000 0.000000
vn 0.000000 1.000000 0.000000
vn 0.000000 1.000000 0.000000
vn 0.000000 0.000000 -1.000000
vn 0.000000 0.000000 -1.000000
vn 0.000000 0.000000 -1.000000
vn 0.000000 0.000000 -1.000000
vn 0.000000 -1.000000 0.000000
vn 0.000000 -1.000000 0.000000
vn 0.000000 -1.000000 0.000000
vn 0.000000 -1.000000 0.000000
vn -0.000000 0.000000 1.000000
vn -0.000000 0.000000 1.000000
vn 0.000000 0.000000 1.000000
vn 0.000000 0.000000 1.000000
vn 0.000000 0.000000 1.000000
vn -0.000000 0.000000 1.000000
vn -0.000000 0.000000 1.000000
vn 0.000000 0.000000 1.000000
vn -1.000000 0.000000 0.000000
vn -1.000000 0.000000 0.000000
vn -1.000000 0.000000 0.000000
vn -1.000000 0.000000 0.000000
vn 0.000000 0.000000 -1.000000
vn 0.000000 0.000000 -1.000000
vn 0.000000 0.000000 -1.000000
vn 0.000000 0.000000 -1.000000
vn 0.000000 0.000000 -1.000000
vn 0.000000 0.000000 -1.000000
vn 0.000000 0.000000 -1.000000
vn 0.000000 0.000000 -1.000000
vn 1.000000 0.000000 0.000000
vn 1.000000 0.000000 0.000000
vn 1.000000 0.000000 0.000000
vn 1.000000 0.000000 0.000000
vn -0.000000 0.000000 1.000000
vn -0.000000 0.000000 1.000000
vn 0.000000 0.000000 1.000000
vn 0.000000 0.000000 1.000000
vn 0.000000 0.000000 1.000000
vn 0.000000 0.000000 1.000000
vn 0.000000 0.000000 1.000000
vn 0.000000 0.000000 1.000000
vn 0.000000 1.000000 0.000000
vn 0.000000 1.000000 0.000000
vn 0.000000 1.000000 0.000000
vn 0.000000 1.000000 0.000000
vn 0.000000 -1.000000 -0.000000
vn 0.000000 -1.000000 -0.000000
vn 0.000000 -1.000000 -0.000000
vn 0.000000 -1.000000 -0.000000
vn 1.000000 0.000000 0.000000
vn 1.000000 0.000000 0.000000
vn 1.000000 0.000000 0.000000
vn 1.000000 0.000000 0.000000
vn -1.000000 0.000000 0.000000
vn -1.000000 0.000000 0.000000
vn -1.000000 0.000000 0.000000
vn -1.000000 0.000000 0.000000
s 1
g Bookshelf_Outside
usemtl initialShadingGroup
f 16/1/1 1/2/2 22/3/3 24/4/4
s 2
f 7/25/5 2/26/6 32/8/7 31/27/8
s 3
f 4/9/9 19/10/10 28/11/11 27/12/12
s 4
f 1/31/13 8/32/14 21/33/15 22/3/16
s 5
f 22/3/17 21/33/18 23/39/19 24/4/20
s 6
f 8/43/21 1/44/22 16/45/23 17/46/24
s 2
f 3/30/25 5/28/26 34/29/27 36/16/28
s 6
f 4/54/29 6/49/30 18/50/31 19/10/32
s 4
f 6/34/33 4/36/34 27/12/35 25/35/36
s 5
f 26/40/37 25/35/38 27/12/39 28/11/40
s 2
f 5/28/26 7/25/5 31/27/8 34/29/27
s 6
f 6/49/30 8/43/21 17/46/24 18/50/31
s 4
f 8/32/14 6/34/33 25/35/36 21/33/15
s 5
f 26/40/37 23/39/19 21/33/18 25/35/38
f 30/6/41 29/41/42 31/27/43 32/8/44
s 1
f 2/7/45 10/5/46 30/6/47 32/8/48
s 6
f 11/48/49 10/47/50 2/51/51 7/52/52
f 12/53/53 11/48/49 7/52/52 5/55/54
f 13/13/55 12/53/53 5/55/54 3/56/56
s 3
f 13/13/57 3/15/58 36/16/59 35/14/60
s 5
f 34/29/61 33/42/62 35/14/63 36/16/64
f 31/27/43 29/41/42 33/42/62 34/29/61
f 24/4/20 23/39/19 29/41/42 30/6/41
s 1
f 10/5/46 16/1/1 24/4/4 30/6/47
s 6
f 17/46/24 16/45/23 10/47/50 11/48/49
f 18/50/31 17/46/24 11/48/49 12/53/53
f 19/10/32 18/50/31 12/53/53 13/13/55
s 3
f 19/10/10 13/13/57 35/14/60 28/11/11
s 5
f 33/42/62 26/40/37 28/11/40 35/14/63
s off
f 14/57/65 9/58/66 15/17/67 20/37/68
f 20/37/69 15/17/70 23/20/71 26/38/72
f 9/18/73 14/21/74 33/24/75 29/19/76
f 15/17/77 9/18/78 29/19/79 23/20/80
f 14/21/81 20/22/82 26/23/83 33/24/84
