# This file uses centimeters as units for non-parametric coordinates.

mtllib Book_KindaOpen.mtl
g default
v 0.182687 0.499484 0.291177
v -0.192601 0.500251 0.197127
v -0.188351 -0.024072 0.197127
v 0.182002 -0.024358 0.291177
v 0.182687 0.499484 -0.007405
v -0.192601 0.500251 0.086646
v -0.188351 -0.024072 0.086646
v 0.182002 -0.024358 -0.007405
v -0.105495 0.500073 0.197116
v -0.102391 -0.024138 0.197116
v -0.102391 -0.024138 0.086657
v -0.105495 0.500073 0.086657
vt 0.057100 0.647713
vt 0.055370 0.440557
vt 0.099019 0.440192
vt 0.100748 0.647348
vt 0.371172 0.440505
vt 0.371026 0.647472
vt 0.253058 0.647389
vt 0.253204 0.440423
vt 0.098727 0.405778
vt 0.055086 0.406143
vt 0.016974 0.292598
vt 0.134938 0.291613
vt 0.021164 0.794342
vt 0.057387 0.681674
vt 0.101028 0.681309
vt 0.139128 0.793356
vt 0.490942 0.440505
vt 0.489374 0.647615
vt 0.525357 0.440492
vt 0.523336 0.647645
vt 0.133433 0.440254
vt 0.134711 0.647366
vn -0.312140 -0.000720 0.950036
vn -0.244050 -0.000563 0.969762
vn -0.245023 -0.000565 0.969517
vn -0.312140 -0.000720 0.950036
vn 0.002044 0.999998 0.000000
vn 0.002044 0.999998 0.000000
vn 0.002043 0.999998 0.000000
vn 0.002043 0.999998 0.000000
vn -0.999967 -0.008106 0.000000
vn -0.999967 -0.008106 0.000000
vn -0.999967 -0.008106 0.000000
vn -0.999967 -0.008106 0.000000
vn -0.000773 -1.000000 0.000000
vn -0.000773 -1.000000 0.000000
vn -0.000773 -1.000000 0.000000
vn -0.000773 -1.000000 0.000000
vn 0.999999 -0.001309 0.000000
vn 0.999999 -0.001309 0.000000
vn 0.999999 -0.001309 0.000000
vn 0.999999 -0.001309 0.000000
vn -0.244051 -0.000563 -0.969762
vn -0.312140 -0.000720 -0.950036
vn -0.312140 -0.000720 -0.950036
vn -0.245023 -0.000565 -0.969517
vn 0.000128 0.000001 1.000000
vn 0.000128 0.000001 1.000000
vn -0.000771 -1.000000 0.000000
vn -0.000771 -1.000000 0.000000
vn 0.000128 0.000001 -1.000000
vn 0.000128 0.000001 -1.000000
vn 0.002045 0.999998 0.000000
vn 0.002045 0.999998 0.000000
s 1
g BookSortaOpen_Low1
usemtl initialShadingGroup
f 1/5/1 9/17/2 10/18/3 4/6/4
s 2
f 12/9/5 9/10/6 1/11/7 5/12/8
s off
f 3/1/9 2/2/10 6/3/11 7/4/12
s 3
f 4/13/13 10/14/14 11/15/15 8/16/16
s off
f 1/5/17 4/6/18 8/7/19 5/8/20
s 4
f 12/21/21 5/8/22 8/7/23 11/22/24
s 1
f 9/17/2 2/19/25 3/20/26 10/18/3
s 3
f 11/15/15 10/14/14 3/1/27 7/4/28
s 4
f 6/3/29 12/21/21 11/22/24 7/4/30
s 2
f 2/2/31 9/10/6 12/9/5 6/3/32
