# This file uses centimeters as units for non-parametric coordinates.

mtllib Bookshelf_Large.mtl
g default
v 2.330631 3.098573 -0.351310
v 2.330631 -0.000563 -0.351310
v 2.253418 3.098573 -0.351310
v 2.253418 -0.000563 -0.351310
v 0.047132 3.098573 -0.351310
v 0.047132 -0.000563 -0.351310
v 0.047132 3.005048 -0.216739
v 0.047132 3.005048 -0.351310
v 2.253418 3.005048 -0.351310
v 2.330631 3.005048 -0.351310
v 2.253418 3.005048 -0.216739
v 0.047132 0.092962 -0.216739
v 0.047132 0.092962 -0.351310
v 2.253418 0.092962 -0.351310
v 2.330631 0.092962 -0.351310
v 2.253418 0.092962 -0.216739
v 0.047132 -0.000563 0.351310
v 0.047132 0.092962 0.351310
v 2.253418 -0.000563 0.351310
v 2.253418 0.092962 0.351310
v 2.330631 -0.000563 0.351310
v 2.330631 0.092962 0.351310
v 0.047132 3.005048 0.351310
v 0.047132 3.098573 0.351310
v 2.253418 3.005048 0.351310
v 2.253418 3.098573 0.351310
v 2.330631 3.005048 0.351310
v 2.330631 3.098573 0.351310
v -2.333242 -0.000563 -0.351310
v -2.333242 3.098573 -0.351310
v -0.049742 3.098573 -0.351310
v -0.049742 -0.000563 -0.351310
v -2.256028 3.098573 -0.351310
v -2.256028 -0.000563 -0.351310
v -2.256028 3.005048 -0.216739
v -2.333242 3.005048 -0.351310
v -2.256028 3.005048 -0.351310
v -0.049742 3.005048 -0.351310
v -0.049742 3.005048 -0.216739
v -2.256028 0.092962 -0.216739
v -2.333242 0.092962 -0.351310
v -2.256028 0.092962 -0.351310
v -0.049742 0.092962 -0.351310
v -0.049742 0.092962 -0.216739
v -2.256028 -0.000563 0.351310
v -2.333242 -0.000563 0.351310
v -2.256028 0.092962 0.351310
v -2.333242 0.092962 0.351310
v -0.049742 -0.000563 0.351310
v -0.049742 0.092962 0.351310
v -2.256028 3.005048 0.351310
v -2.333242 3.005048 0.351310
v -2.256028 3.098573 0.351310
v -2.333242 3.098573 0.351310
v -0.049742 3.005048 0.351310
v -0.049742 3.098573 0.351310
vt 0.044360 0.507484
vt 0.045588 0.500774
vt 0.098444 0.502975
vt 0.097305 0.509701
vt 0.041882 0.294356
vt 0.092931 0.288281
vt 0.040282 0.287614
vt 0.092412 0.281131
vt 0.785365 0.642587
vt 0.789468 0.857150
vt 0.264503 0.286494
vt 0.743511 0.643388
vt 0.952027 0.854041
vt 0.947924 0.639478
vt 0.989778 0.638678
vt 0.993881 0.853241
vt 0.491377 0.499301
vt 0.493639 0.505305
vt 0.447015 0.512722
vt 0.442014 0.507217
vt 0.496276 0.295688
vt 0.443328 0.285476
vt 0.498510 0.289247
vt 0.447717 0.279928
vt 0.531960 0.647433
vt 0.536063 0.861996
vt 0.494209 0.862796
vt 0.490106 0.648234
vt 0.698622 0.858887
vt 0.694519 0.644324
vt 0.273047 0.503088
vt 0.740476 0.858087
vt 0.093242 0.228098
vt 0.098962 0.228322
vt 0.098587 0.280689
vt 0.264372 0.227566
vt 0.265183 0.279604
vt 0.271666 0.227289
vt 0.272506 0.279526
vt 0.432541 0.226841
vt 0.438127 0.278632
vt 0.437868 0.225743
vt 0.443163 0.275324
vt 0.102252 0.560346
vt 0.096612 0.560188
vt 0.103131 0.508799
vt 0.262745 0.562046
vt 0.265422 0.510059
vt 0.272607 0.509998
vt 0.269846 0.561644
vt 0.429553 0.567222
vt 0.436462 0.514188
vt 0.435151 0.568294
vt 0.441428 0.517136
vt 0.784564 0.600733
vt 0.947124 0.597624
vt 0.952828 0.895895
vt 0.790268 0.899004
vt 0.531159 0.605579
vt 0.693719 0.602470
vt 0.699423 0.900741
vt 0.536863 0.903850
vt 0.506933 0.346132
vt 0.512623 0.346128
vt 0.512627 0.353020
vt 0.506937 0.353024
vt 0.675212 0.346028
vt 0.675216 0.352920
vt 0.512760 0.567622
vt 0.507070 0.567626
vt 0.682351 0.346023
vt 0.682355 0.352916
vt 0.675349 0.567522
vt 0.512764 0.574515
vt 0.507074 0.574518
vt 0.844940 0.345923
vt 0.844945 0.352815
vt 0.682488 0.567518
vt 0.675353 0.574414
vt 0.850630 0.345919
vt 0.850635 0.352812
vt 0.845077 0.567417
vt 0.682492 0.574410
vt 0.850767 0.567414
vt 0.845081 0.574309
vt 0.850771 0.574306
vt 0.104006 0.501941
vt 0.098572 0.287583
vt 0.436313 0.506993
vt 0.442297 0.513959
vt 0.437551 0.285751
vt 0.443426 0.279251
vt 0.747614 0.857950
vt 0.271928 0.286284
vt 0.265761 0.503194
vt 0.736373 0.643524
vn 1.000000 0.000000 0.000000
vn 1.000000 0.000000 0.000000
vn 1.000000 0.000000 0.000000
vn 1.000000 0.000000 0.000000
vn 0.000000 1.000000 0.000000
vn 0.000000 1.000000 0.000000
vn 0.000000 1.000000 0.000000
vn 0.000000 1.000000 0.000000
vn 0.000000 0.000000 -1.000000
vn 0.000000 0.000000 -1.000000
vn 0.000000 0.000000 -1.000000
vn 0.000000 0.000000 -1.000000
vn 0.000000 -1.000000 0.000000
vn 0.000000 -1.000000 0.000000
vn 0.000000 -1.000000 0.000000
vn 0.000000 -1.000000 0.000000
vn -0.000000 0.000000 1.000000
vn -0.000000 0.000000 1.000000
vn 0.000000 0.000000 1.000000
vn 0.000000 0.000000 1.000000
vn 0.000000 1.000000 0.000000
vn 0.000000 1.000000 0.000000
vn 0.000000 0.000000 -1.000000
vn 0.000000 0.000000 -1.000000
vn 0.000000 -1.000000 0.000000
vn 0.000000 -1.000000 0.000000
vn -0.000000 0.000000 1.000000
vn -0.000000 0.000000 1.000000
vn 0.000000 0.000000 -1.000000
vn 0.000000 0.000000 -1.000000
vn 0.000000 0.000000 -1.000000
vn 0.000000 0.000000 -1.000000
vn 0.000000 0.000000 -1.000000
vn 0.000000 0.000000 -1.000000
vn 1.000000 0.000000 0.000000
vn 1.000000 0.000000 0.000000
vn 1.000000 0.000000 0.000000
vn 1.000000 0.000000 0.000000
vn -0.000000 0.000000 1.000000
vn -0.000000 0.000000 1.000000
vn 0.000000 0.000000 1.000000
vn 0.000000 0.000000 1.000000
vn -0.000000 0.000000 1.000000
vn -0.000000 0.000000 1.000000
vn 0.000000 0.000000 1.000000
vn 0.000000 0.000000 1.000000
vn 0.000000 0.000000 1.000000
vn 0.000000 0.000000 1.000000
vn 0.000000 1.000000 0.000000
vn 0.000000 1.000000 0.000000
vn 0.000000 1.000000 0.000000
vn 0.000000 1.000000 0.000000
vn 0.000000 -1.000000 0.000000
vn 0.000000 -1.000000 0.000000
vn 0.000000 -1.000000 0.000000
vn 0.000000 -1.000000 0.000000
vn 1.000000 0.000000 0.000000
vn 1.000000 0.000000 0.000000
vn 1.000000 0.000000 0.000000
vn 1.000000 0.000000 0.000000
vn -1.000000 0.000000 0.000000
vn -1.000000 0.000000 0.000000
vn -1.000000 0.000000 0.000000
vn -1.000000 0.000000 0.000000
vn -1.000000 0.000000 0.000000
vn -1.000000 0.000000 0.000000
vn -1.000000 0.000000 0.000000
vn -1.000000 0.000000 0.000000
vn 0.000000 1.000000 0.000000
vn 0.000000 1.000000 0.000000
vn 0.000000 1.000000 0.000000
vn 0.000000 1.000000 0.000000
vn 0.000000 -1.000000 0.000000
vn 0.000000 -1.000000 0.000000
vn 0.000000 -1.000000 0.000000
vn 0.000000 -1.000000 0.000000
vn 0.000000 0.000000 1.000000
vn -0.000000 0.000000 1.000000
vn -0.000000 0.000000 1.000000
vn 0.000000 0.000000 1.000000
vn 0.000000 0.000000 -1.000000
vn 0.000000 0.000000 -1.000000
vn 0.000000 0.000000 -1.000000
vn 0.000000 0.000000 -1.000000
vn 0.000000 1.000000 0.000000
vn 0.000000 1.000000 0.000000
vn 0.000000 0.000000 -1.000000
vn 0.000000 0.000000 -1.000000
vn 0.000000 -1.000000 0.000000
vn 0.000000 -1.000000 0.000000
vn -0.000000 0.000000 1.000000
vn -0.000000 0.000000 1.000000
vn 0.000000 0.000000 1.000000
vn -0.000000 0.000000 1.000000
vn -0.000000 0.000000 1.000000
vn 0.000000 0.000000 1.000000
vn -1.000000 0.000000 0.000000
vn -1.000000 0.000000 0.000000
vn -1.000000 0.000000 0.000000
vn -1.000000 0.000000 0.000000
vn 0.000000 0.000000 -1.000000
vn 0.000000 0.000000 -1.000000
vn 0.000000 0.000000 -1.000000
vn 0.000000 0.000000 -1.000000
vn 0.000000 0.000000 -1.000000
vn 0.000000 0.000000 -1.000000
vn -0.000000 0.000000 1.000000
vn -0.000000 0.000000 1.000000
vn 0.000000 0.000000 1.000000
vn 0.000000 0.000000 1.000000
vn 0.000000 0.000000 1.000000
vn 0.000000 0.000000 1.000000
vn 0.000000 1.000000 0.000000
vn 0.000000 1.000000 0.000000
vn 0.000000 1.000000 0.000000
vn 0.000000 1.000000 0.000000
vn 0.000000 -1.000000 0.000000
vn 0.000000 -1.000000 0.000000
vn 0.000000 -1.000000 0.000000
vn 0.000000 -1.000000 0.000000
vn 1.000000 0.000000 0.000000
vn 1.000000 0.000000 0.000000
vn 1.000000 0.000000 0.000000
vn 1.000000 0.000000 0.000000
vn -1.000000 0.000000 0.000000
vn -1.000000 0.000000 0.000000
vn -1.000000 0.000000 0.000000
vn -1.000000 0.000000 0.000000
vn 0.000000 1.000000 0.000000
vn 0.000000 1.000000 0.000000
vn 0.000000 1.000000 0.000000
vn 0.000000 1.000000 0.000000
vn -0.000000 0.000000 -1.000000
vn -0.000000 0.000000 -1.000000
vn -0.000000 0.000000 -1.000000
vn -0.000000 0.000000 -1.000000
vn -0.000000 0.000000 -1.000000
vn -0.000000 0.000000 -1.000000
vn -0.000000 0.000000 -1.000000
vn -0.000000 0.000000 -1.000000
vn -0.000000 0.000000 -1.000000
vn -0.000000 0.000000 -1.000000
vn -0.000000 0.000000 -1.000000
vn -0.000000 0.000000 -1.000000
vn 0.000000 -1.000000 0.000000
vn 0.000000 -1.000000 0.000000
vn 0.000000 -1.000000 0.000000
vn 0.000000 -1.000000 0.000000
vn 0.000000 0.000000 1.000000
vn 0.000000 0.000000 1.000000
vn 0.000000 0.000000 1.000000
vn 0.000000 0.000000 1.000000
vn 0.000000 0.000000 1.000000
vn 0.000000 0.000000 1.000000
vn 0.000000 0.000000 1.000000
vn 0.000000 0.000000 1.000000
vn 0.000000 0.000000 1.000000
vn 0.000000 0.000000 1.000000
vn 0.000000 0.000000 1.000000
vn 0.000000 0.000000 1.000000
s 1
g Bookshelf_Large
usemtl initialShadingGroup
f 2/1/1 15/2/2 22/3/3 21/4/4
s 2
f 1/33/5 3/34/6 26/35/7 28/8/8
s 3
f 2/63/9 4/64/10 14/65/11 15/66/12
s 4
f 4/44/13 2/45/14 21/4/15 19/46/16
s 5
f 20/87/17 19/46/18 21/4/19 22/3/20
s 2
f 3/34/6 5/36/21 24/37/22 26/35/7
s 3
f 4/64/10 6/67/23 13/68/24 14/65/11
s 4
f 6/47/25 4/44/13 19/46/16 17/48/26
s 5
f 20/87/17 18/95/27 17/48/28 19/46/18
s 3
f 9/69/29 8/73/30 5/79/31 3/74/32
f 10/70/33 9/69/29 3/74/32 1/75/34
s 1
f 10/5/35 1/7/36 28/8/37 27/6/38
s 5
f 26/35/39 25/88/40 27/6/41 28/8/42
f 24/37/43 23/11/44 25/88/40 26/35/39
s 3
f 14/65/11 13/68/24 8/73/30 9/69/29
f 15/66/12 14/65/11 9/69/29 10/70/33
s 1
f 15/2/2 10/5/35 27/6/38 22/3/3
s 5
f 25/88/40 20/87/17 22/3/20 27/6/41
s off
f 11/13/45 7/10/46 12/9/47 16/14/48
f 16/14/49 12/9/50 18/55/51 20/56/52
f 7/10/53 11/13/54 25/57/55 23/58/56
f 12/9/57 7/10/58 23/93/59 18/12/60
f 11/13/61 16/14/62 20/15/63 25/16/64
s 7
f 41/17/65 29/18/66 46/19/67 48/20/68
s 8
f 33/40/69 30/42/70 54/43/71 53/41/72
s 9
f 29/53/73 34/51/74 45/52/75 46/54/76
s 10
f 46/90/77 45/52/78 47/89/79 48/20/80
s 11
f 34/76/81 29/80/82 41/81/83 42/77/84
s 8
f 31/38/85 33/40/69 53/41/72 56/39/86
s 11
f 32/71/87 34/76/81 42/77/84 43/72/88
s 9
f 34/51/74 32/50/89 49/49/90 45/52/75
s 10
f 50/31/91 47/89/79 45/52/78 49/49/92
f 52/22/93 51/91/94 53/41/95 54/92/96
s 7
f 30/23/97 36/21/98 52/22/99 54/24/100
s 11
f 37/82/101 36/84/102 30/86/103 33/85/104
f 38/78/105 37/82/101 33/85/104 31/83/106
s 10
f 53/41/95 51/91/94 55/94/107 56/39/108
f 48/20/80 47/89/79 51/91/94 52/22/93
s 7
f 36/21/98 41/17/65 48/20/68 52/22/99
s 11
f 42/77/84 41/81/83 36/84/102 37/82/101
f 43/72/88 42/77/84 37/82/101 38/78/105
s off
f 39/29/109 35/26/110 40/25/111 44/30/112
f 44/30/113 40/25/114 47/59/115 50/60/116
f 35/26/117 39/29/118 55/61/119 51/62/120
f 40/25/121 35/26/122 51/27/123 47/28/124
f 39/29/125 44/30/126 50/96/127 55/32/128
f 31/38/129 56/39/130 24/37/131 5/36/132
f 5/79/133 8/73/134 38/78/135 31/83/136
f 8/73/137 13/68/138 43/72/139 38/78/140
f 13/68/141 6/67/142 32/71/143 43/72/144
f 49/49/145 32/50/146 6/47/147 17/48/148
f 17/48/149 18/95/150 50/31/151 49/49/152
f 18/12/153 23/93/154 55/32/155 50/96/156
f 23/11/157 24/37/158 56/39/159 55/94/160
