# This file uses centimeters as units for non-parametric coordinates.

mtllib Candle_Mid.mtl
g default
v -0.021388 0.007168 -0.154323
v -0.047019 0.007168 -0.171449
v -0.107486 0.007168 -0.171449
v -0.133117 0.007168 -0.154323
v -0.150243 0.007168 -0.128692
v -0.156257 0.007168 -0.098458
v -0.150243 0.007168 -0.068224
v -0.107486 0.007168 -0.025467
v -0.077253 0.007168 -0.019453
v -0.008962 0.007168 -0.042593
v 0.008164 0.007168 -0.068224
v 0.001752 0.007168 -0.098458
v -0.030654 0.205691 -0.145056
v -0.052034 0.205691 -0.159342
v -0.102471 0.213746 -0.159342
v -0.123851 0.213746 -0.145056
v -0.138136 0.213746 -0.123677
v -0.143152 0.205924 -0.098458
v -0.138136 0.205924 -0.073239
v -0.102471 0.213746 -0.037575
v -0.077253 0.213746 -0.032558
v -0.030654 0.213746 -0.051860
v -0.016369 0.213746 -0.073239
v -0.011353 0.205691 -0.098458
v -0.085434 0.009703 -0.098458
v -0.035508 0.205691 -0.140202
v -0.054660 0.205691 -0.153000
v -0.099844 0.213746 -0.153000
v -0.118997 0.213746 -0.140202
v -0.131794 0.213746 -0.121050
v -0.136288 0.205924 -0.098458
v -0.131794 0.205924 -0.075866
v -0.099844 0.213746 -0.043917
v -0.077253 0.213746 -0.039423
v -0.035508 0.213746 -0.056714
v -0.022711 0.213746 -0.075866
v -0.018217 0.213746 -0.098458
v -0.042466 0.197545 -0.133245
v -0.058426 0.197545 -0.143909
v -0.096079 0.197545 -0.143909
v -0.112039 0.197545 -0.133245
v -0.122704 0.197545 -0.117285
v -0.126448 0.197545 -0.098458
v -0.122704 0.197545 -0.079632
v -0.096079 0.197545 -0.053007
v -0.077253 0.197545 -0.049262
v -0.042465 0.197545 -0.063671
v -0.031801 0.197545 -0.079632
v -0.028056 0.197545 -0.098458
v -0.073194 0.197545 -0.102517
v -0.075056 0.197545 -0.103761
v -0.079449 0.197545 -0.103761
v -0.081311 0.197545 -0.102517
v -0.082555 0.197545 -0.100655
v -0.082992 0.197545 -0.098458
v -0.082555 0.197545 -0.096262
v -0.079449 0.197545 -0.093156
v -0.077253 0.197545 -0.092719
v -0.073194 0.197545 -0.094400
v -0.071950 0.197545 -0.096262
v -0.071513 0.197545 -0.098458
v -0.071750 0.242008 -0.101254
v -0.074546 0.242008 -0.098458
v -0.073033 0.242008 -0.102111
v -0.076059 0.242008 -0.102111
v -0.077342 0.242008 -0.101254
v -0.078199 0.242008 -0.099971
v -0.078500 0.242008 -0.098458
v -0.078199 0.242008 -0.096945
v -0.076059 0.242008 -0.094805
v -0.074546 0.242008 -0.094504
v -0.071750 0.242008 -0.095662
v -0.070893 0.242008 -0.096945
v -0.070592 0.242008 -0.098458
v -0.150243 0.037734 -0.068224
v -0.164438 0.037734 -0.098458
v -0.158425 0.037734 -0.128692
v -0.133117 0.037734 -0.154323
v -0.107486 0.037734 -0.171449
v -0.047019 0.037734 -0.171449
v -0.008962 0.037734 -0.154323
v 0.001752 0.037734 -0.098458
v -0.004262 0.037734 -0.068224
v -0.021388 0.037734 -0.042593
v -0.077253 0.037734 -0.019453
v -0.107486 0.037734 -0.025467
v -0.098583 0.136616 -0.046962
v -0.136604 0.136616 -0.067846
v -0.140846 0.136616 -0.089177
v -0.128748 0.136616 -0.119788
v -0.116666 0.136616 -0.137871
v -0.098583 0.136616 -0.149954
v -0.055922 0.136616 -0.149954
v -0.037839 0.136616 -0.137871
v -0.021514 0.136616 -0.098458
v -0.025757 0.136616 -0.077128
v -0.037839 0.136616 -0.059045
v -0.077253 0.136616 -0.042720
vt 0.685744 0.424533
vt 0.698183 0.424715
vt 0.697984 0.436847
vt 0.682835 0.436698
vt 0.720662 0.438950
vt 0.718072 0.411380
vt 0.722750 0.400085
vt 0.732107 0.440844
vt 0.722759 0.387856
vt 0.745290 0.443671
vt 0.718093 0.376552
vt 0.756212 0.447119
vt 0.709461 0.367892
vt 0.768163 0.451026
vt 0.790150 0.459645
vt 0.685947 0.363170
vt 0.674643 0.367825
vt 0.615650 0.449964
vt 0.638051 0.442126
vt 0.657175 0.390453
vt 0.657146 0.402666
vt 0.649811 0.439494
vt 0.665893 0.411229
vt 0.661612 0.438406
vt 0.694709 0.392108
vt 0.649359 0.562336
vt 0.642183 0.562919
vt 0.645991 0.563004
vt 0.643063 0.562132
vt 0.643546 0.561850
vt 0.644030 0.561623
vt 0.644515 0.561451
vt 0.645003 0.561336
vt 0.645956 0.561273
vt 0.646438 0.561300
vt 0.647387 0.561478
vt 0.647878 0.561621
vt 0.648373 0.561800
vt 0.686436 0.505020
vt 0.695120 0.505212
vt 0.695221 0.507805
vt 0.686098 0.507614
vt 0.711453 0.509512
vt 0.712392 0.517784
vt 0.719829 0.511159
vt 0.716154 0.527237
vt 0.728494 0.512688
vt 0.716224 0.537335
vt 0.737750 0.512091
vt 0.710105 0.546123
vt 0.746677 0.514228
vt 0.702700 0.553039
vt 0.763010 0.525032
vt 0.683622 0.557509
vt 0.636289 0.515693
vt 0.674164 0.553121
vt 0.653351 0.511663
vt 0.664164 0.536479
vt 0.661725 0.510267
vt 0.664236 0.526183
vt 0.669761 0.506206
vt 0.668275 0.516692
vt 0.694161 0.512854
vt 0.686979 0.512609
vt 0.706231 0.521774
vt 0.708905 0.528740
vt 0.708809 0.536242
vt 0.705849 0.543229
vt 0.700212 0.548384
vt 0.685496 0.550388
vt 0.678986 0.547155
vt 0.671239 0.534932
vt 0.671477 0.527602
vt 0.674518 0.520894
vt 0.690658 0.529579
vt 0.689797 0.529542
vt 0.692047 0.530604
vt 0.692365 0.531435
vt 0.692349 0.532318
vt 0.691997 0.533116
vt 0.691361 0.533710
vt 0.689682 0.533968
vt 0.688888 0.533597
vt 0.687989 0.532131
vt 0.688009 0.531261
vt 0.688357 0.530464
vt 0.755694 0.488692
vt 0.746953 0.485895
vt 0.733219 0.482484
vt 0.724037 0.480532
vt 0.714621 0.479049
vt 0.695829 0.477890
vt 0.686046 0.477762
vt 0.667281 0.478776
vt 0.657778 0.479776
vt 0.648534 0.481522
vt 0.631328 0.486608
vt 0.623064 0.489564
vt 0.638053 0.544744
vt 0.652078 0.544278
vt 0.639847 0.544300
vt 0.640773 0.544098
vt 0.641713 0.543927
vt 0.642663 0.543794
vt 0.643618 0.543702
vt 0.645506 0.543663
vt 0.646471 0.543709
vt 0.648359 0.543858
vt 0.649314 0.543973
vt 0.650263 0.544087
vt 0.649872 0.562654
vt 0.652991 0.544378
vt 0.662135 0.512757
vt 0.670406 0.510355
vt 0.653496 0.514278
vt 0.637396 0.517978
vt 0.628825 0.521434
vt 0.745886 0.516720
vt 0.737384 0.514801
vt 0.728201 0.515226
vt 0.719305 0.513768
vt 0.710619 0.511938
vt 0.772091 0.495359
vt 0.627131 0.519106
vt 0.604503 0.454796
vt 0.760704 0.526559
vt 0.661136 0.426042
vt 0.649177 0.426143
vt 0.637696 0.429096
vt 0.611155 0.438855
vt 0.794490 0.448168
vt 0.599857 0.443591
vt 0.771970 0.439520
vt 0.759931 0.435212
vt 0.747259 0.431639
vt 0.734716 0.428906
vt 0.722275 0.426856
vn 0.788700 -0.160319 -0.593506
vn 0.182286 -0.037053 -0.982547
vn 0.182863 0.162698 -0.969583
vn 0.833270 0.162164 -0.528548
vn -0.195124 0.165016 -0.966797
vn -0.195089 0.000000 -0.980786
vn -0.673141 -0.054002 -0.737540
vn -0.661862 0.165612 -0.731103
vn -0.877986 -0.177561 -0.444537
vn -0.880484 0.161320 -0.445785
vn -0.978291 -0.196384 0.066181
vn -0.991199 0.132377 -0.000713
vn -0.809095 -0.044851 0.585963
vn -0.774502 0.105301 0.623746
vn -0.499978 0.133625 0.855667
vn -0.555570 0.000000 0.831470
vn 0.182183 0.050032 0.981991
vn 0.185787 0.175868 0.966723
vn 0.525784 0.199413 0.826913
vn 0.562527 0.185309 0.805745
vn 0.925361 0.270071 0.266026
vn 0.903354 0.242822 0.353538
vn 0.979062 -0.059246 -0.194747
vn 0.975391 0.175110 -0.133974
vn -0.007483 -0.999498 0.030777
vn -0.024871 -0.999549 0.016846
vn -0.000069 -0.999998 -0.001988
vn 0.006506 -0.999443 0.032748
vn 0.024168 -0.999402 0.024722
vn 0.032668 -0.999371 0.013771
vn 0.035774 -0.999360 0.000000
vn 0.029981 -0.999360 -0.019532
vn 0.017791 -0.999411 -0.029337
vn -0.005679 -0.999488 -0.031485
vn -0.015851 -0.999594 -0.023664
vn -0.025146 -0.999666 -0.005978
vn -0.029065 -0.999533 0.009395
vn 0.000000 1.000000 0.000000
vn 0.000000 1.000000 0.000000
vn 0.000000 1.000000 -0.000005
vn 0.000000 1.000000 -0.000015
vn 0.000000 1.000000 0.000019
vn 0.000000 1.000000 -0.000039
vn 0.000000 1.000000 0.000000
vn 0.000000 1.000000 0.000034
vn 0.000000 1.000000 -0.000026
vn 0.000000 1.000000 0.000000
vn 0.000000 1.000000 0.000000
vn 0.000000 1.000000 0.000000
vn 0.000000 1.000000 0.000000
vn 0.316356 0.930810 -0.183062
vn 0.102897 0.994692 -0.000002
vn 0.112453 0.993657 -0.000002
vn 0.342118 0.918566 -0.197970
vn 0.102896 0.994692 -0.000001
vn 0.112452 0.993657 -0.000000
vn 0.000000 1.000000 0.000001
vn 0.000000 1.000000 0.000001
vn -0.031001 0.987294 0.155852
vn -0.030817 0.987445 0.154926
vn -0.031001 0.987294 0.155853
vn -0.030817 0.987445 0.154927
vn -0.070664 0.994994 -0.070659
vn -0.077243 0.994016 -0.077238
vn -0.070664 0.994994 -0.070663
vn -0.077241 0.994016 -0.077240
vn 0.000000 1.000000 -0.000002
vn 0.000000 1.000000 -0.000001
vn 0.000000 1.000000 -0.000003
vn 0.000000 1.000000 -0.000003
vn 0.296453 0.954800 -0.021732
vn 0.295563 0.955078 -0.021667
vn 0.489485 0.849966 -0.194839
vn 0.490809 0.850287 -0.190049
vn -0.658818 0.666920 0.348106
vn -0.069491 0.666929 0.741874
vn -0.060313 0.662440 0.746683
vn -0.666771 0.662431 0.341470
vn 0.245187 0.573893 0.781364
vn 0.219674 0.578391 0.785625
vn 0.604370 0.519107 0.604371
vn 0.604369 0.519107 0.604372
vn 0.731406 0.556656 0.393927
vn 0.733107 0.562043 0.382964
vn 0.718567 0.687602 0.104239
vn 0.715293 0.692962 0.090327
vn 0.579486 0.661654 -0.475826
vn 0.576270 0.657333 -0.485621
vn 0.382053 0.572100 -0.725767
vn 0.402967 0.576299 -0.710983
vn -0.159571 0.512452 -0.843759
vn -0.174090 0.511177 -0.841660
vn -0.483793 0.512454 -0.709462
vn -0.472044 0.511179 -0.718242
vn -0.789650 0.519105 -0.327081
vn -0.789651 0.519105 -0.327081
vn -0.815722 0.573883 0.072493
vn -0.809895 0.578381 0.097698
vn 0.000000 1.000000 0.000001
vn 0.000000 1.000000 0.000000
vn 0.000000 1.000000 0.000000
vn 0.000000 1.000000 0.000001
vn 0.000000 1.000000 -0.000001
vn 0.000000 1.000000 -0.000001
vn 0.000000 1.000000 -0.000002
vn 0.000000 1.000000 -0.000002
vn 0.000000 1.000000 0.000000
vn 0.000000 1.000000 0.000000
vn 0.000000 1.000000 0.000000
vn 0.000000 1.000000 0.000000
vn 0.000000 1.000000 0.000000
vn 0.000000 1.000000 0.000000
vn 0.000000 1.000000 -0.000001
vn 0.000000 1.000000 -0.000001
vn 0.000000 1.000000 -0.000003
vn 0.000000 1.000000 -0.000002
vn 0.000000 1.000000 -0.000001
vn 0.000000 1.000000 -0.000001
vn 0.000000 1.000000 0.000004
vn 0.000000 1.000000 0.000004
vn 0.000000 1.000000 0.000004
vn 0.000000 1.000000 0.000004
vn 0.186363 0.027951 -0.982083
vn 0.203784 0.027031 -0.978643
vn 0.835235 -0.011514 -0.549773
vn 0.827503 -0.010934 -0.561355
vn -0.205010 0.051885 -0.977384
vn -0.185126 0.050519 -0.981415
vn -0.708450 0.083134 -0.700848
vn -0.700972 0.082681 -0.708380
vn -0.920712 0.096007 -0.378250
vn -0.918530 0.095875 -0.383550
vn -0.994937 0.100505 0.000000
vn -0.994937 0.100505 -0.000000
vn -0.831105 0.089848 0.548810
vn -0.825249 0.089411 0.557647
vn -0.560809 0.073345 0.824690
vn -0.547370 0.072656 0.833731
vn 0.184450 0.028220 0.982437
vn 0.205137 0.026797 0.978366
vn 0.549733 0.005861 0.835320
vn 0.561469 0.005257 0.827481
vn 0.922662 -0.016017 0.385277
vn 0.924873 -0.016152 0.379934
vn 0.980521 -0.020310 -0.195361
vn 0.980651 -0.020313 -0.194709
vn -0.751870 0.087100 0.653533
vn -0.992466 0.121344 -0.016932
vn -0.883384 0.120390 -0.452924
vn -0.680869 0.097288 -0.725915
vn -0.197250 0.084526 -0.976703
vn 0.176765 0.097463 -0.979416
vn 0.821136 0.124356 -0.557021
vn 0.984130 0.107376 -0.141277
vn 0.917946 0.085223 0.387443
vn 0.551217 0.083360 0.830187
vn 0.197259 0.083360 0.976801
vn -0.479328 0.079545 0.874024
vn -0.460404 -0.077930 0.884282
vn -0.771093 -0.033784 0.635826
vn -0.988989 -0.070670 -0.130026
vn -0.892256 -0.117117 -0.436076
vn -0.701048 -0.130614 -0.701050
vn -0.224106 -0.132749 -0.965481
vn 0.168058 -0.137240 -0.976177
vn 0.821614 -0.142865 -0.551852
vn 0.978590 -0.140963 -0.149972
vn 0.901124 -0.133324 0.412553
vn 0.552761 -0.128199 0.823420
vn 0.191383 -0.128200 0.973107
s 1
g Candle2
usemtl initialShadingGroup
f 1/1/1 2/2/2 80/3/3 81/4/4
f 79/5/5 80/3/3 2/2/2 3/137/6
f 3/137/6 4/136/7 78/8/8 79/5/5
f 4/136/7 5/135/9 77/10/10 78/8/8
f 5/135/9 6/134/11 76/12/12 77/10/10
f 6/134/11 7/133/13 75/14/14 76/12/12
f 86/15/15 75/14/14 7/133/13 8/131/16
f 8/132/16 9/130/17 85/18/18 86/125/15
f 84/19/19 85/18/18 9/130/17 10/129/20
f 10/129/20 11/128/21 83/22/22 84/19/19
f 11/128/21 12/127/23 82/24/24 83/22/22
f 81/4/4 82/24/24 12/127/23 1/1/1
s 2
f 2/2/25 1/1/26 25/25/27
f 3/6/28 2/2/25 25/25/27
f 4/7/29 3/6/28 25/25/27
f 5/9/30 4/7/29 25/25/27
f 6/11/31 5/9/30 25/25/27
f 7/13/32 6/11/31 25/25/27
f 8/16/33 7/13/32 25/25/27
f 9/17/34 8/16/33 25/25/27
f 10/20/35 9/17/34 25/25/27
f 11/21/36 10/20/35 25/25/27
f 12/23/37 11/21/36 25/25/27
f 1/1/26 12/23/37 25/25/27
s 3
f 62/26/38 64/111/39 63/28/40
f 63/28/40 64/27/39 65/29/41
f 65/29/41 66/30/42 63/28/40
f 66/30/42 67/31/43 63/28/40
f 67/31/43 68/32/44 63/28/40
f 68/32/44 69/33/45 63/28/40
f 63/28/40 69/33/45 70/34/46
f 70/34/46 71/35/47 63/28/40
f 63/28/40 71/35/47 72/36/48
f 72/36/48 73/37/49 63/28/40
f 73/37/49 74/38/50 63/28/40
f 63/28/40 74/38/50 62/26/38
s 4
f 13/39/51 14/40/52 27/41/53 26/42/54
f 27/41/53 14/40/52 15/43/55 28/122/56
f 15/43/55 16/45/57 29/121/58 28/122/56
f 16/45/57 17/47/59 30/120/60 29/121/58
f 17/47/59 18/49/61 31/119/62 30/120/60
f 18/49/61 19/51/63 32/118/64 31/119/62
f 32/118/64 19/51/63 20/53/65 33/126/66
f 20/124/65 21/55/67 34/116/68 33/117/66
f 34/116/68 21/55/67 22/57/69 35/115/70
f 22/57/69 23/59/71 36/113/72 35/115/70
f 23/59/71 24/61/73 37/114/74 36/113/72
f 37/114/74 24/61/73 13/39/51 26/42/54
s 5
f 26/42/75 27/41/76 39/63/77 38/64/78
f 39/63/77 27/41/76 28/44/79 40/65/80
f 28/44/79 29/46/81 41/66/82 40/65/80
f 29/46/81 30/48/83 42/67/84 41/66/82
f 30/48/83 31/50/85 43/68/86 42/67/84
f 31/50/85 32/52/87 44/69/88 43/68/86
f 44/69/88 32/52/87 33/54/89 45/70/90
f 33/54/89 34/56/91 46/71/92 45/70/90
f 46/71/92 34/56/91 35/58/93 47/72/94
f 35/58/93 36/60/95 48/73/96 47/72/94
f 36/60/95 37/62/97 49/74/98 48/73/96
f 49/74/98 37/62/97 26/42/75 38/64/78
s 6
f 38/64/99 39/63/100 51/75/101 50/76/102
f 51/75/101 39/63/100 40/65/103 52/77/104
f 40/65/103 41/66/105 53/78/106 52/77/104
f 41/66/105 42/67/107 54/79/108 53/78/106
f 42/67/107 43/68/109 55/80/110 54/79/108
f 43/68/109 44/69/111 56/81/112 55/80/110
f 56/81/112 44/69/111 45/70/113 57/82/114
f 45/70/113 46/71/115 58/83/116 57/82/114
f 58/83/116 46/71/115 47/72/117 59/84/118
f 47/72/117 48/73/119 60/85/120 59/84/118
f 48/73/119 49/74/121 61/86/122 60/85/120
f 61/86/122 49/74/121 38/64/99 50/76/102
s 7
f 51/112/123 64/111/124 62/26/125 50/100/126
f 52/101/127 65/29/128 64/27/124 51/99/123
f 53/102/129 66/30/130 65/29/128 52/101/127
f 54/103/131 67/31/132 66/30/130 53/102/129
f 55/104/133 68/32/134 67/31/132 54/103/131
f 56/105/135 69/33/136 68/32/134 55/104/133
f 57/106/137 70/34/138 69/33/136 56/105/135
f 58/107/139 71/35/140 70/34/138 57/106/137
f 59/108/141 72/36/142 71/35/140 58/107/139
f 60/109/143 73/37/144 72/36/142 59/108/141
f 61/110/145 74/38/146 73/37/144 60/109/143
f 50/100/126 62/26/125 74/38/146 61/110/145
s 1
f 76/12/12 75/14/14 88/87/147 89/88/148
f 77/10/10 76/12/12 89/88/148 90/89/149
f 78/8/8 77/10/10 90/89/149 91/90/150
f 79/5/5 78/8/8 91/90/150 92/91/151
f 92/91/151 93/92/152 80/3/3 79/5/5
f 81/4/4 80/3/3 93/92/152 94/93/153
f 94/93/153 95/94/154 82/24/24 81/4/4
f 83/22/22 82/24/24 95/94/154 96/95/155
f 84/19/19 83/22/22 96/95/155 97/96/156
f 97/96/156 98/97/157 85/18/18 84/19/19
f 86/125/15 85/18/18 98/97/157 87/98/158
f 87/123/158 88/87/147 75/14/14 86/15/15
f 20/53/159 19/51/160 88/87/147 87/123/158
f 89/88/148 88/87/147 19/51/160 18/49/161
f 90/89/149 89/88/148 18/49/161 17/47/162
f 91/90/150 90/89/149 17/47/162 16/45/163
f 92/91/151 91/90/150 16/45/163 15/43/164
f 15/43/164 14/40/165 93/92/152 92/91/151
f 94/93/153 93/92/152 14/40/165 13/39/166
f 13/39/166 24/61/167 95/94/154 94/93/153
f 96/95/155 95/94/154 24/61/167 23/59/168
f 97/96/156 96/95/155 23/59/168 22/57/169
f 22/57/169 21/55/170 98/97/157 97/96/156
f 87/98/158 98/97/157 21/55/170 20/124/159
