# This file uses centimeters as units for non-parametric coordinates.

mtllib ChainLink.mtl
g default
v -0.057596 -0.002089 0.163944
v 0.057596 -0.002089 0.163944
v -0.057596 0.597315 0.198361
v 0.057596 0.597315 0.198361
v -0.057596 0.597315 -0.198361
v 0.057596 0.597315 -0.198361
v -0.057596 -0.002089 -0.163944
v 0.057596 -0.002089 -0.163944
v 0.057596 0.085227 -0.261957
v -0.057596 0.085227 -0.261957
v -0.057596 0.085227 0.261957
v 0.057596 0.085227 0.261957
v 0.057596 0.509999 -0.255054
v -0.057596 0.509999 -0.255054
v -0.057596 0.509999 0.256567
v 0.057596 0.509999 0.256567
v 0.057596 0.631442 -0.140106
v -0.057596 0.631442 -0.140106
v -0.084138 0.540168 -0.205273
v -0.084138 0.049527 -0.185025
v -0.057596 -0.023073 -0.115797
v 0.057596 -0.023073 -0.115797
v 0.084138 0.049527 -0.185025
v 0.084138 0.540168 -0.205273
v 0.057596 0.631442 0.140106
v -0.057596 0.631442 0.140106
v -0.084138 0.540168 0.200836
v -0.084138 0.049527 0.185025
v -0.057596 -0.023073 0.115797
v 0.057596 -0.023073 0.115797
v 0.084138 0.049527 0.185025
v 0.084138 0.540168 0.200836
v 0.027151 0.305875 -0.161306
v -0.027151 0.305875 -0.161306
v -0.057596 0.305875 -0.128241
v -0.057596 0.305875 0.128727
v -0.027151 0.305875 0.165743
v 0.027151 0.305875 0.165743
v 0.057596 0.305875 0.128727
v 0.057596 0.305875 -0.128241
vt 0.122637 0.862328
vt 0.134337 0.861827
vt 0.135923 0.870370
vt 0.122515 0.871408
vt 0.137104 0.876823
vt 0.120335 0.687174
vt 0.117333 0.718809
vt 0.130564 0.719876
vt 0.129785 0.727201
vt 0.116797 0.726152
vt 0.119330 0.805231
vt 0.131834 0.804552
vt 0.133017 0.808783
vt 0.118761 0.809678
vt 0.098104 0.864777
vt 0.110764 0.681445
vt 0.117225 0.770182
vt 0.129224 0.769725
vt 0.131088 0.778341
vt 0.116799 0.779425
vt 0.120377 0.818506
vt 0.113610 0.814346
vt 0.132147 0.818259
vt 0.093616 0.813844
vt 0.125093 0.747587
vt 0.117808 0.748070
vt 0.116811 0.841408
vt 0.122471 0.841186
vt 0.129747 0.840349
vt 0.103165 0.841714
vt 0.118849 0.713283
vt 0.130105 0.714430
vt 0.111299 0.722329
vt 0.112450 0.748257
vt 0.118139 0.783524
vt 0.110998 0.775913
vt 0.130329 0.782865
vt 0.091646 0.772181
vt 0.091571 0.721504
vt 0.098939 0.747622
vt 0.138707 0.812713
vt 0.095563 0.817376
vt 0.136405 0.773708
vt 0.092183 0.777211
vt 0.140281 0.864389
vt 0.091662 0.681570
vt 0.135975 0.724036
vt 0.093199 0.724472
vt 0.130125 0.747493
vt 0.135091 0.839944
vt 0.145226 0.684137
vt 0.134477 0.688079
vt 0.122391 0.878224
vt 0.117398 0.866081
vn 0.000000 -0.012704 0.999919
vn 0.000000 -0.012704 0.999919
vn 0.000000 0.554665 0.832074
vn 0.000000 0.554665 0.832074
vn 0.000000 0.862838 0.505481
vn 0.000000 0.862838 0.505481
vn 0.000000 0.994955 0.100322
vn 0.000000 0.994955 0.100322
vn 0.000000 0.544566 -0.838718
vn 0.000000 0.544566 -0.838718
vn 0.000000 -0.028317 -0.999599
vn 0.000000 -0.028317 -0.999599
vn 0.000000 -0.997198 0.074802
vn 0.000000 -0.997198 0.074802
vn 0.000000 -0.916718 0.399534
vn 0.000000 -0.916718 0.399534
vn 0.870245 -0.213473 0.443963
vn 0.968126 0.140203 0.207546
vn 0.958968 0.283282 0.011449
vn 0.818159 0.397976 0.415007
vn -0.968126 0.140203 0.207546
vn -0.870245 -0.213473 0.443962
vn -0.818159 0.397976 0.415007
vn -0.958968 0.283282 0.011449
vn 0.000000 -0.125099 -0.992144
vn 0.000000 -0.125099 -0.992144
vn 0.000000 -0.746675 -0.665189
vn 0.000000 -0.746675 -0.665189
vn -0.936399 -0.350723 0.012310
vn -0.736758 -0.543273 0.402546
vn -0.903128 0.190629 0.384734
vn -0.957098 -0.137654 0.254980
vn 0.000000 -0.746675 0.665189
vn 0.000000 -0.746675 0.665189
vn 0.000000 -0.137690 0.990475
vn 0.000000 -0.137690 0.990475
vn 0.736758 -0.543273 0.402546
vn 0.936399 -0.350723 0.012310
vn 0.957098 -0.137653 0.254980
vn 0.903129 0.190629 0.384733
vn 0.000000 0.014926 -0.999889
vn 0.000000 0.014926 -0.999889
vn -0.908934 0.010352 0.416811
vn -0.908675 0.005387 0.417469
vn 0.000000 0.011444 0.999935
vn 0.000000 0.011444 0.999935
vn 0.908675 0.005387 0.417469
vn 0.908935 0.010352 0.416810
vn 0.000000 0.994955 -0.100322
vn 0.000000 0.994955 -0.100322
vn 0.000000 0.862838 -0.505481
vn 0.000000 0.862838 -0.505481
vn -0.848843 -0.229369 -0.476293
vn -0.964959 0.145752 -0.218197
vn -0.958936 0.283425 -0.010632
vn -0.790549 0.420972 -0.444763
vn -0.899321 0.007510 -0.437225
vn -0.899736 0.013207 -0.436234
vn -0.736758 -0.543272 -0.402546
vn -0.936399 -0.350722 -0.012310
vn -0.956118 -0.138664 -0.258090
vn -0.898327 0.195381 -0.393491
vn 0.000000 -0.916719 -0.399534
vn 0.000000 -0.916719 -0.399534
vn 0.000000 -0.997198 -0.074802
vn 0.000000 -0.997198 -0.074802
vn 0.956118 -0.138664 -0.258090
vn 0.936399 -0.350723 -0.012310
vn 0.736758 -0.543272 -0.402546
vn 0.898327 0.195382 -0.393492
vn 0.964959 0.145752 -0.218197
vn 0.899736 0.013207 -0.436234
vn 0.899321 0.007510 -0.437225
vn 0.848843 -0.229369 -0.476293
vn 0.958936 0.283425 -0.010632
vn 0.790549 0.420972 -0.444763
vn 0.000000 -1.000000 0.000000
vn 0.000000 -1.000000 0.000000
vn 0.000000 -1.000000 0.000000
vn 0.000000 -1.000000 0.000000
vn 0.000000 0.312334 0.949972
vn 0.000000 0.312334 0.949972
vn 0.000000 0.312334 0.949972
vn 0.000000 0.312334 0.949972
vn 0.000000 -0.216267 0.976334
vn 0.000000 -0.216267 0.976334
vn 0.000000 -0.216267 0.976334
vn 0.000000 -0.216267 0.976334
vn 0.000000 1.000000 0.000000
vn 0.000000 1.000000 0.000000
vn 0.000000 1.000000 0.000000
vn 0.000000 1.000000 0.000000
vn 0.000000 -0.214504 -0.976723
vn 0.000000 -0.214504 -0.976723
vn 0.000000 -0.214504 -0.976723
vn 0.000000 -0.214504 -0.976723
vn 0.000000 0.294157 -0.955757
vn 0.000000 0.294157 -0.955757
vn 0.000000 0.294157 -0.955757
vn 0.000000 0.294157 -0.955757
s 1
g Link
usemtl initialShadingGroup
f 15/1/1 16/2/2 4/3/3 3/4/4
s 2
f 3/4/5 4/3/6 25/5/7 26/53/8
s 3
f 5/7/9 6/8/10 13/9/11 14/10/12
s 4
f 29/11/13 30/12/14 2/13/15 1/14/16
s 5
f 16/2/17 32/45/18 25/5/19 4/3/20
s 6
f 27/54/21 15/1/22 3/4/23 26/53/24
s 3
f 10/17/25 9/18/26 8/19/27 7/20/28
s 6
f 29/11/29 1/14/30 11/21/31 28/22/32
s 1
f 1/14/33 2/13/34 12/23/35 11/21/36
s 5
f 2/13/37 30/12/38 31/41/39 12/23/40
s 3
f 14/10/12 13/9/11 33/25/41 34/26/42
s 6
f 36/27/43 37/28/44 15/1/22 27/54/21
s 1
f 37/28/45 38/29/46 16/2/2 15/1/1
s 5
f 38/29/47 39/50/48 32/45/18 16/2/17
s 2
f 18/31/49 17/32/50 6/8/51 5/7/52
s 6
f 14/10/53 19/33/54 18/31/55 5/7/56
f 34/26/57 35/34/58 19/33/54 14/10/53
f 7/20/59 21/35/60 20/36/61 10/17/62
s 4
f 7/20/63 8/19/64 22/37/65 21/35/66
s 5
f 23/43/67 22/37/68 8/19/69 9/18/70
f 24/47/71 40/49/72 33/25/73 13/9/74
f 17/32/75 24/47/71 13/9/74 6/8/76
s 2
f 26/6/8 25/52/7 17/32/50 18/31/49
s 6
f 19/33/54 27/16/21 26/6/24 18/31/55
f 21/35/60 29/11/29 28/22/32 20/36/61
s 4
f 21/35/66 22/37/65 30/12/14 29/11/13
s 5
f 31/41/39 30/12/38 22/37/68 23/43/67
f 25/52/19 32/51/18 24/47/71 17/32/75
s 3
f 34/26/42 33/25/41 9/18/26 10/17/25
s 6
f 10/17/62 20/36/61 35/34/58 34/26/57
f 28/22/32 11/21/31 37/28/44 36/27/43
s 1
f 11/21/36 12/23/35 38/29/46 37/28/45
s 5
f 12/23/40 31/41/39 39/50/48 38/29/47
f 33/25/73 40/49/72 23/43/67 9/18/70
s off
f 27/16/77 19/33/78 24/39/79 32/46/80
f 19/33/81 35/34/82 40/40/83 24/48/84
f 23/38/85 40/40/86 35/34/87 20/36/88
f 20/36/89 28/22/90 31/24/91 23/44/92
f 39/30/93 31/42/94 28/22/95 36/27/96
f 36/27/97 27/54/98 32/15/99 39/30/100
