# This file uses centimeters as units for non-parametric coordinates.

mtllib Crate_Large.mtl
g default
v -0.949505 0.002931 0.461056
v 0.794254 0.002931 0.461056
v -0.949505 1.109424 0.461056
v 0.794254 1.109424 0.461056
v -0.949505 1.109424 -0.538944
v 0.794254 1.109424 -0.538944
v -0.949505 0.002931 -0.538944
v 0.794254 0.002931 -0.538944
v 0.554519 1.109424 0.461056
v 0.554519 1.109424 -0.538944
v 0.554519 0.002931 -0.538944
v 0.554519 0.002931 0.461056
v -0.709771 1.109424 0.461056
v -0.709771 1.109424 -0.538944
v -0.709771 0.002931 -0.538944
v -0.709771 0.002931 0.461056
v 0.512064 1.109424 0.461056
v 0.512064 1.109424 -0.538944
v 0.512064 0.002931 -0.538944
v 0.512064 0.002931 0.461056
v -0.667314 1.109424 0.461056
v -0.667314 1.109424 -0.538944
v -0.667314 0.002931 -0.538944
v -0.667314 0.002931 0.461056
v -0.732799 0.932231 0.479270
v -0.981266 0.932231 0.479270
v -0.981266 0.932231 -0.557157
v -0.732799 0.932231 -0.557157
v -0.688796 0.932231 -0.557157
v 0.533544 0.932231 -0.557157
v 0.577547 0.932231 -0.557157
v 0.826014 0.932231 -0.557157
v 0.826014 0.932231 0.479270
v 0.577547 0.932231 0.479270
v 0.533544 0.932231 0.479270
v -0.688796 0.932231 0.479270
v -0.709771 0.889039 0.461056
v -0.949505 0.889039 0.461056
v -0.949505 0.889039 -0.538944
v -0.709771 0.889039 -0.538944
v -0.667314 0.889039 -0.538944
v 0.512064 0.889039 -0.538944
v 0.554519 0.889039 -0.538944
v 0.794254 0.889039 -0.538944
v 0.794254 0.889039 0.461056
v 0.554519 0.889039 0.461056
v 0.512064 0.889039 0.461056
v -0.667314 0.889039 0.461056
v -0.709771 1.155202 0.478483
v -0.667314 1.155202 0.478483
v -0.667314 1.155202 -0.556370
v -0.709771 1.155202 -0.556370
v -0.709771 0.863899 -0.570081
v -0.709771 -0.034820 -0.556777
v -0.667314 0.863899 -0.570081
v -0.667314 -0.034820 -0.556777
v -0.709771 -0.034820 0.478890
v -0.667314 -0.034820 0.478890
v -0.667314 0.863899 0.492195
v -0.709771 0.863899 0.492195
v -0.732799 0.915118 -0.587888
v -0.688796 0.915118 -0.587888
v -0.732799 0.915118 0.510001
v -0.688796 0.915118 0.510001
v 0.512064 1.155202 0.478483
v 0.554519 1.155202 0.478483
v 0.554519 1.155202 -0.556370
v 0.512064 1.155202 -0.556370
v 0.512064 0.863900 -0.570081
v 0.512064 -0.034820 -0.556777
v 0.554519 0.863900 -0.570081
v 0.554519 -0.034820 -0.556777
v 0.512064 -0.034820 0.478890
v 0.554519 -0.034820 0.478890
v 0.512064 0.863900 0.492195
v 0.554519 0.863900 0.492195
v 0.533544 0.915118 -0.587888
v 0.577547 0.915118 -0.587888
v 0.533544 0.915118 0.510001
v 0.577547 0.915118 0.510001
vt 0.853911 0.494997
vt 0.818289 0.496973
vt 0.816960 0.369862
vt 0.852500 0.366320
vt 0.851095 0.336326
vt 0.816624 0.337278
vt 0.815818 0.191782
vt 0.850031 0.192123
vt 0.850902 0.162001
vt 0.815776 0.158566
vt 0.813926 0.029414
vt 0.850264 0.029451
vt 0.860138 0.641083
vt 0.825115 0.641881
vt 0.580344 0.500567
vt 0.583143 0.647994
vt 0.453008 0.651769
vt 0.449269 0.504364
vt 0.984718 0.489798
vt 0.990474 0.636685
vt 0.612651 0.339267
vt 0.578334 0.339327
vt 0.577090 0.194129
vt 0.611494 0.193120
vt 0.612636 0.029574
vt 0.611336 0.160049
vt 0.576221 0.163591
vt 0.576310 0.029887
vt 0.616060 0.500353
vt 0.617953 0.646982
vt 0.613078 0.372867
vt 0.577363 0.370221
vt 0.811589 0.335074
vt 0.805621 0.335003
vt 0.804974 0.193875
vt 0.810961 0.193761
vt 0.811154 0.023993
vt 0.810992 0.155585
vt 0.804511 0.155326
vt 0.804746 0.023960
vt 0.815046 0.500292
vt 0.819582 0.644777
vt 0.813245 0.644861
vt 0.808799 0.500534
vt 0.805751 0.373291
vt 0.812281 0.372934
vt 0.623474 0.337075
vt 0.617481 0.337216
vt 0.616498 0.195384
vt 0.622467 0.195465
vt 0.621804 0.023958
vt 0.622571 0.156736
vt 0.616106 0.157010
vt 0.615385 0.024068
vt 0.625735 0.503432
vt 0.629763 0.649354
vt 0.623471 0.649398
vt 0.619473 0.503579
vt 0.624409 0.376107
vt 0.617863 0.375875
vt 0.801071 0.337185
vt 0.628257 0.339502
vt 0.627051 0.193343
vt 0.800259 0.191341
vt 0.801952 0.029408
vt 0.799697 0.158890
vt 0.627394 0.160317
vt 0.624620 0.029436
vt 0.805353 0.497399
vt 0.807676 0.642501
vt 0.635265 0.646471
vt 0.629036 0.500147
vt 0.800906 0.369705
vt 0.629144 0.372433
vt 0.856374 0.359355
vt 0.818513 0.362778
vt 0.876574 0.189223
vt 0.877639 0.338988
vt 0.817363 0.165723
vt 0.854922 0.169003
vt 0.806654 0.163582
vt 0.813172 0.163969
vt 0.624645 0.167265
vt 0.802503 0.165775
vt 0.614005 0.165473
vt 0.620527 0.165055
vt 0.572213 0.170670
vt 0.609791 0.167240
vt 0.551813 0.342266
vt 0.550524 0.191640
vt 0.611366 0.365666
vt 0.573367 0.363135
vt 0.622138 0.367788
vt 0.615613 0.367419
vt 0.803656 0.362770
vt 0.626253 0.365553
vt 0.814299 0.364553
vt 0.807797 0.365013
vt 0.884499 0.191811
vt 0.885525 0.336329
vt 0.445176 0.654683
vt 0.441297 0.501909
vn 0.000000 0.000000 1.000000
vn 0.000000 0.000000 1.000000
vn 0.000000 -0.014339 0.999897
vn 0.000000 -0.027005 0.999635
vn 0.000000 1.000000 0.000000
vn 0.000000 1.000000 0.000000
vn 0.000000 1.000000 0.000000
vn 0.000000 1.000000 0.000000
vn 0.000000 -0.027005 -0.999635
vn 0.000000 -0.014339 -0.999897
vn 0.000000 0.000000 -1.000000
vn 0.000000 0.000000 -1.000000
vn 0.000000 -1.000000 0.000000
vn 0.000000 -1.000000 0.000000
vn 0.000000 -1.000000 0.000000
vn 0.000000 -1.000000 0.000000
vn 1.000000 0.000000 0.000000
vn 1.000000 0.000000 0.000000
vn 0.999135 -0.041572 0.000000
vn 0.999135 -0.041572 0.000000
vn -1.000000 0.000000 0.000000
vn -1.000000 0.000000 0.000000
vn -0.999135 -0.041574 0.000000
vn -0.999135 -0.041574 0.000000
vn 0.000000 1.000000 0.000000
vn 0.000000 1.000000 0.000000
vn 0.000000 1.000000 0.000000
vn 0.000000 1.000000 0.000000
vn 0.000000 0.000000 -1.000000
vn 0.000000 -0.014339 -0.999897
vn 0.000000 -0.027005 -0.999635
vn 0.000000 0.000000 -1.000000
vn 0.000000 -1.000000 0.000000
vn 0.000000 -1.000000 0.000000
vn 0.000000 -1.000000 0.000000
vn 0.000000 -1.000000 0.000000
vn 0.000000 -0.014339 0.999897
vn 0.000000 0.000000 1.000000
vn 0.000000 0.000000 1.000000
vn 0.000000 -0.027005 0.999635
vn 0.000000 1.000000 0.000000
vn 0.000000 1.000000 0.000000
vn 0.000000 1.000000 0.000000
vn 0.000000 1.000000 0.000000
vn 0.000000 -0.014802 -0.999891
vn 0.000000 -0.037382 -0.999301
vn 0.000000 -0.028848 -0.999584
vn 0.000000 -0.014802 -0.999891
vn 0.000000 -1.000000 0.000000
vn 0.000000 -1.000000 0.000000
vn 0.000000 -1.000000 0.000000
vn 0.000000 -1.000000 0.000000
vn 0.000000 -0.028848 0.999584
vn 0.000000 -0.037382 0.999301
vn 0.000000 -0.014802 0.999891
vn 0.000000 -0.014802 0.999891
vn 0.000000 1.000000 0.000000
vn 0.000000 1.000000 0.000000
vn 0.000000 1.000000 0.000000
vn 0.000000 1.000000 0.000000
vn 0.000000 -0.014802 -0.999891
vn 0.000000 -0.028849 -0.999584
vn 0.000000 -0.037383 -0.999301
vn 0.000000 -0.014802 -0.999891
vn 0.000000 -1.000000 0.000000
vn 0.000000 -1.000000 0.000000
vn 0.000000 -1.000000 0.000000
vn 0.000000 -1.000000 0.000000
vn 0.000000 -0.028849 0.999584
vn 0.000000 -0.014802 0.999891
vn 0.000000 -0.014802 0.999891
vn 0.000000 -0.037383 0.999301
vn 0.000000 1.000000 0.000000
vn 0.000000 1.000000 0.000000
vn 0.000000 1.000000 0.000000
vn 0.000000 1.000000 0.000000
vn 0.000000 0.000000 -1.000000
vn 0.000000 -0.025062 -0.999686
vn 0.000000 -0.025062 -0.999686
vn 0.000000 0.000000 -1.000000
vn 0.000000 -1.000000 0.000000
vn 0.000000 -1.000000 0.000000
vn 0.000000 -1.000000 0.000000
vn 0.000000 -1.000000 0.000000
vn 0.000000 -0.025062 0.999686
vn 0.000000 0.000000 1.000000
vn 0.000000 0.000000 1.000000
vn 0.000000 -0.025062 0.999686
vn 0.000000 0.026384 0.999652
vn 0.000000 -0.015371 0.999882
vn 0.000000 0.102252 0.994759
vn 0.000000 0.102252 0.994759
vn -0.999738 0.022908 0.000000
vn -0.999738 0.022908 0.000000
vn -0.984312 0.176435 0.000000
vn -0.984312 0.176435 0.000000
vn 0.000000 0.102252 -0.994759
vn 0.000000 0.102252 -0.994759
vn 0.000000 -0.015371 -0.999882
vn 0.000000 0.026384 -0.999652
vn 0.000000 0.035332 -0.999376
vn 0.000000 0.061925 -0.998081
vn 0.000000 0.130162 -0.991493
vn 0.000000 0.130162 -0.991493
vn 0.000000 0.018408 -0.999831
vn 0.000000 0.018410 -0.999831
vn 0.000000 0.102251 -0.994759
vn 0.000000 0.102251 -0.994759
vn 0.000000 0.061924 -0.998081
vn 0.000000 0.035332 -0.999376
vn 0.000000 0.130163 -0.991493
vn 0.000000 0.130163 -0.991493
vn 0.000000 0.026383 -0.999652
vn 0.000000 -0.015371 -0.999882
vn 0.000000 0.102251 -0.994759
vn 0.000000 0.102251 -0.994759
vn 0.999738 0.022908 0.000000
vn 0.999738 0.022908 0.000000
vn 0.984314 0.176428 0.000000
vn 0.984314 0.176428 0.000000
vn 0.000000 0.102251 0.994759
vn 0.000000 -0.015371 0.999882
vn 0.000000 0.026383 0.999652
vn 0.000000 0.102251 0.994759
vn 0.000000 0.130163 0.991493
vn 0.000000 0.035332 0.999376
vn 0.000000 0.061924 0.998081
vn 0.000000 0.130163 0.991493
vn 0.000000 0.102251 0.994759
vn 0.000000 0.018410 0.999831
vn 0.000000 0.018408 0.999831
vn 0.000000 0.102251 0.994759
vn 0.000000 0.130165 0.991492
vn 0.000000 0.061927 0.998081
vn 0.000000 0.035335 0.999376
vn 0.000000 0.130165 0.991492
vn 0.000000 -0.027005 0.999635
vn 0.000000 -0.014339 0.999897
vn 0.000000 -0.015371 0.999882
vn 0.000000 0.026384 0.999652
vn -0.999135 -0.041574 0.000000
vn -0.999135 -0.041574 0.000000
vn -0.999738 0.022908 0.000000
vn -0.999738 0.022908 0.000000
vn 0.000000 0.026384 -0.999652
vn 0.000000 -0.015371 -0.999882
vn 0.000000 -0.014339 -0.999897
vn 0.000000 -0.027005 -0.999635
vn 0.000000 -0.028848 -0.999584
vn 0.000000 -0.037382 -0.999301
vn 0.000000 0.061925 -0.998081
vn 0.000000 0.035332 -0.999376
vn 0.000000 -0.025062 -0.999686
vn 0.000000 -0.025062 -0.999686
vn 0.000000 0.018410 -0.999831
vn 0.000000 0.018408 -0.999831
vn 0.000000 -0.037383 -0.999301
vn 0.000000 -0.028849 -0.999584
vn 0.000000 0.035332 -0.999376
vn 0.000000 0.061924 -0.998081
vn 0.000000 -0.027005 -0.999635
vn 0.000000 -0.014339 -0.999897
vn 0.000000 -0.015371 -0.999882
vn 0.000000 0.026383 -0.999652
vn 0.999135 -0.041572 0.000000
vn 0.999135 -0.041572 0.000000
vn 0.999738 0.022908 0.000000
vn 0.999738 0.022908 0.000000
vn 0.000000 -0.015371 0.999882
vn 0.000000 -0.014339 0.999897
vn 0.000000 -0.027005 0.999635
vn 0.000000 0.026383 0.999652
vn 0.000000 0.035332 0.999376
vn 0.000000 -0.028849 0.999584
vn 0.000000 -0.037383 0.999301
vn 0.000000 0.061924 0.998081
vn 0.000000 0.018410 0.999831
vn 0.000000 -0.025062 0.999686
vn 0.000000 -0.025062 0.999686
vn 0.000000 0.018408 0.999831
vn 0.000000 0.035335 0.999376
vn 0.000000 0.061927 0.998081
vn 0.000000 -0.037382 0.999301
vn 0.000000 -0.028848 0.999584
vn 0.999882 -0.013180 0.007846
vn 0.999882 -0.013179 -0.007846
vn 0.999987 -0.004400 -0.002621
vn 0.999987 -0.004400 0.002621
vn -0.999865 0.014133 0.008405
vn -0.999865 0.014133 -0.008405
vn -0.999985 0.004742 -0.002815
vn -0.999985 0.004742 0.002815
vn -1.000000 -0.000009 0.000000
vn -1.000000 -0.000001 0.000000
vn -1.000000 -0.000001 0.000000
vn -1.000000 -0.000012 0.000000
vn 1.000000 -0.000001 0.000000
vn 1.000000 0.000009 0.000000
vn 1.000000 0.000013 0.000000
vn 1.000000 -0.000001 0.000000
vn -1.000000 -0.000008 0.000000
vn -1.000000 -0.000009 0.000000
vn -1.000000 -0.000012 0.000000
vn -1.000000 -0.000012 0.000000
vn 1.000000 0.000009 0.000000
vn 1.000000 0.000009 0.000000
vn 1.000000 0.000014 0.000000
vn 1.000000 0.000013 0.000000
vn -1.000000 0.000001 0.000000
vn -1.000000 -0.000008 0.000000
vn -1.000000 -0.000012 0.000000
vn -1.000000 0.000001 0.000000
vn 1.000000 0.000009 0.000000
vn 1.000000 0.000000 0.000000
vn 1.000000 0.000000 0.000000
vn 1.000000 0.000014 0.000000
vn -0.992883 0.102336 0.060912
vn -0.999865 0.014133 0.008405
vn -0.999985 0.004742 0.002815
vn -0.992883 0.102336 0.060912
vn 0.999882 -0.013179 -0.007846
vn 0.993799 -0.095548 -0.056875
vn 0.993799 -0.095548 -0.056875
vn 0.999987 -0.004400 -0.002621
vn -0.999865 0.014133 -0.008405
vn -0.992883 0.102335 -0.060911
vn -0.992883 0.102335 -0.060911
vn -0.999985 0.004742 -0.002815
vn 0.993798 -0.095553 0.056874
vn 0.999882 -0.013180 0.007846
vn 0.999987 -0.004400 0.002621
vn 0.993798 -0.095553 0.056874
vn -0.905497 -0.350430 0.239320
vn -0.905497 -0.350430 0.239320
vn -0.905497 -0.350430 0.239320
vn -0.905497 -0.350430 0.239320
vn 0.916263 0.330799 -0.225908
vn 0.916263 0.330799 -0.225908
vn 0.916263 0.330799 -0.225908
vn 0.916263 0.330799 -0.225908
vn -0.905493 -0.350442 -0.239318
vn -0.905493 -0.350442 -0.239318
vn -0.905493 -0.350442 -0.239318
vn -0.905493 -0.350442 -0.239318
vn 0.916267 0.330786 0.225909
vn 0.916267 0.330786 0.225909
vn 0.916267 0.330786 0.225909
vn 0.916267 0.330786 0.225909
vn 0.999865 0.014121 -0.008405
vn 0.999865 0.014122 0.008405
vn 0.999985 0.004730 0.002815
vn 0.999985 0.004730 -0.002815
vn -0.999883 -0.013168 -0.007846
vn -0.999883 -0.013169 0.007846
vn -0.999987 -0.004389 0.002620
vn -0.999987 -0.004389 -0.002620
vn -1.000000 0.000010 0.000000
vn -1.000000 0.000000 0.000000
vn -1.000000 0.000000 0.000000
vn -1.000000 0.000014 0.000000
vn 1.000000 0.000000 0.000000
vn 1.000000 -0.000009 0.000000
vn 1.000000 -0.000012 0.000000
vn 1.000000 0.000000 0.000000
vn -1.000000 0.000010 0.000000
vn -1.000000 0.000010 0.000000
vn -1.000000 0.000014 0.000000
vn -1.000000 0.000014 0.000000
vn 1.000000 -0.000009 0.000000
vn 1.000000 -0.000009 0.000000
vn 1.000000 -0.000012 0.000000
vn 1.000000 -0.000012 0.000000
vn -1.000000 0.000000 0.000000
vn -1.000000 0.000010 0.000000
vn -1.000000 0.000014 0.000000
vn -1.000000 0.000000 0.000000
vn 1.000000 -0.000009 0.000000
vn 1.000000 -0.000001 0.000000
vn 1.000000 -0.000001 0.000000
vn 1.000000 -0.000012 0.000000
vn -0.993800 -0.095538 -0.056870
vn -0.999883 -0.013168 -0.007846
vn -0.999987 -0.004389 -0.002620
vn -0.993800 -0.095538 -0.056870
vn 0.999865 0.014122 0.008405
vn 0.992884 0.102327 0.060909
vn 0.992884 0.102327 0.060909
vn 0.999985 0.004730 0.002815
vn -0.999883 -0.013169 0.007846
vn -0.993800 -0.095542 0.056869
vn -0.993800 -0.095542 0.056869
vn -0.999987 -0.004389 0.002620
vn 0.992885 0.102323 -0.060908
vn 0.999865 0.014121 -0.008405
vn 0.999985 0.004730 -0.002815
vn 0.992885 0.102323 -0.060908
vn -0.916280 0.330762 -0.225893
vn -0.916280 0.330762 -0.225893
vn -0.916280 0.330762 -0.225893
vn -0.916280 0.330762 -0.225893
vn 0.905509 -0.350403 0.239313
vn 0.905509 -0.350403 0.239313
vn 0.905509 -0.350403 0.239313
vn 0.905509 -0.350403 0.239313
vn -0.916275 0.330776 0.225892
vn -0.916275 0.330776 0.225892
vn -0.916275 0.330776 0.225892
vn -0.916275 0.330776 0.225892
vn 0.905509 -0.350403 -0.239313
vn 0.905509 -0.350403 -0.239313
vn 0.905509 -0.350403 -0.239313
vn 0.905509 -0.350403 -0.239313
s off
g Crate_Large1
usemtl initialShadingGroup
f 1/1/1 16/2/2 37/3/3 38/4/4
f 3/5/5 13/6/6 14/7/7 5/8/8
f 39/9/9 40/10/10 15/11/11 7/12/12
f 7/13/13 15/14/14 16/2/15 1/1/16
f 2/15/17 8/16/18 44/17/19 45/18/20
f 7/13/21 1/1/22 38/19/23 39/20/24
f 9/21/25 4/22/26 6/23/27 10/24/28
f 11/25/29 43/26/30 44/27/31 8/28/32
f 12/29/33 11/30/34 8/16/35 2/15/36
f 46/31/37 12/29/38 2/15/39 45/32/40
f 49/33/41 50/34/42 51/35/43 52/36/44
f 54/37/45 53/38/46 55/39/47 56/40/48
f 57/41/49 54/42/50 56/43/51 58/44/52
f 59/45/53 60/46/54 57/41/55 58/44/56
f 65/47/57 66/48/58 67/49/59 68/50/60
f 70/51/61 69/52/62 71/53/63 72/54/64
f 73/55/65 70/56/66 72/57/67 74/58/68
f 75/59/69 73/55/70 74/58/71 76/60/72
f 21/61/73 17/62/74 18/63/75 22/64/76
f 23/65/77 41/66/78 42/67/79 19/68/80
f 24/69/81 23/70/82 19/71/83 20/72/84
f 48/73/85 24/69/86 20/72/87 47/74/88
f 26/75/89 25/76/90 13/6/91 3/5/92
f 27/77/93 26/78/94 3/5/95 5/8/96
f 5/8/97 14/7/98 28/79/99 27/80/100
f 62/81/101 61/82/102 52/36/103 51/35/104
f 30/83/105 29/84/106 22/64/107 18/63/108
f 78/85/109 77/86/110 68/50/111 67/49/112
f 32/87/113 31/88/114 10/24/115 6/23/116
f 33/89/117 32/90/118 6/23/119 4/22/120
f 9/21/121 34/91/122 33/92/123 4/22/124
f 65/47/125 79/93/126 80/94/127 66/48/128
f 21/61/129 36/95/130 35/96/131 17/62/132
f 49/33/133 63/97/134 64/98/135 50/34/136
f 38/4/137 37/3/138 25/76/139 26/75/140
f 39/99/141 38/100/142 26/78/143 27/77/144
f 27/80/145 28/79/146 40/10/147 39/9/148
f 55/39/149 53/38/150 61/82/151 62/81/152
f 42/67/153 41/66/154 29/84/155 30/83/156
f 71/53/157 69/52/158 77/86/159 78/85/160
f 44/27/161 43/26/162 31/88/163 32/87/164
f 45/18/165 44/17/166 32/101/167 33/102/168
f 34/91/169 46/31/170 45/32/171 33/92/172
f 79/93/173 75/59/174 76/60/175 80/94/176
f 36/95/177 48/73/178 47/74/179 35/96/180
f 64/98/181 63/97/182 60/46/183 59/45/184
f 21/61/185 22/64/186 51/35/187 50/34/188
f 14/7/189 13/6/190 49/33/191 52/36/192
f 15/11/193 40/10/194 53/38/195 54/37/196
f 41/66/197 23/65/198 56/40/199 55/39/200
f 16/2/201 15/14/202 54/42/203 57/41/204
f 23/70/205 24/69/206 58/44/207 56/43/208
f 37/3/209 16/2/210 57/41/211 60/46/212
f 24/69/213 48/73/214 59/45/215 58/44/216
f 28/79/217 14/7/218 52/36/219 61/82/220
f 22/64/221 29/84/222 62/81/223 51/35/224
f 13/6/225 25/76/226 63/97/227 49/33/228
f 36/95/229 21/61/230 50/34/231 64/98/232
f 40/10/233 28/79/234 61/82/235 53/38/236
f 29/84/237 41/66/238 55/39/239 62/81/240
f 25/76/241 37/3/242 60/46/243 63/97/244
f 48/73/245 36/95/246 64/98/247 59/45/248
f 9/21/249 10/24/250 67/49/251 66/48/252
f 18/63/253 17/62/254 65/47/255 68/50/256
f 19/68/257 42/67/258 69/52/259 70/51/260
f 43/26/261 11/25/262 72/54/263 71/53/264
f 20/72/265 19/71/266 70/56/267 73/55/268
f 11/30/269 12/29/270 74/58/271 72/57/272
f 47/74/273 20/72/274 73/55/275 75/59/276
f 12/29/277 46/31/278 76/60/279 74/58/280
f 30/83/281 18/63/282 68/50/283 77/86/284
f 10/24/285 31/88/286 78/85/287 67/49/288
f 17/62/289 35/96/290 79/93/291 65/47/292
f 34/91/293 9/21/294 66/48/295 80/94/296
f 42/67/297 30/83/298 77/86/299 69/52/300
f 31/88/301 43/26/302 71/53/303 78/85/304
f 35/96/305 47/74/306 75/59/307 79/93/308
f 46/31/309 34/91/310 80/94/311 76/60/312
