# This file uses centimeters as units for non-parametric coordinates.

mtllib Page.mtl
g default
v -2.412358 2.658340 0.086531
v -2.122630 2.658340 0.098810
v -2.122630 2.116298 0.098810
v -2.412358 2.116298 0.086531
v -2.412127 2.658340 0.081078
v -2.122399 2.658340 0.093357
v -2.122399 2.116298 0.093357
v -2.412127 2.116298 0.081078
vt 0.535608 0.249840
vt 0.535389 0.035681
vt 0.537545 0.035679
vt 0.537765 0.249838
vt 0.654275 0.035559
vt 0.654494 0.249718
vt 0.652337 0.249721
vt 0.652118 0.035562
vt 0.421035 0.249958
vt 0.535610 0.251997
vt 0.421037 0.252114
vt 0.420815 0.035798
vt 0.420813 0.033642
vt 0.535387 0.033525
vn 0.042342 0.000000 -0.999103
vn 0.042342 0.000000 -0.999103
vn 0.042342 0.000000 -0.999103
vn 0.042342 0.000000 -0.999103
vn -0.042342 0.000000 0.999103
vn -0.042342 0.000000 0.999103
vn -0.042342 0.000000 0.999103
vn -0.042342 0.000000 0.999103
vn 0.000000 1.000000 -0.000024
vn 0.000000 1.000000 -0.000024
vn 0.000000 1.000000 -0.000024
vn 0.000000 1.000000 -0.000024
vn 0.999104 0.000000 0.042330
vn 0.999104 0.000000 0.042330
vn 0.999104 0.000000 0.042330
vn 0.999104 0.000000 0.042330
vn 0.000000 -1.000000 -0.000009
vn 0.000000 -1.000000 -0.000009
vn 0.000000 -1.000000 -0.000009
vn 0.000000 -1.000000 -0.000009
vn -0.999102 0.000000 -0.042373
vn -0.999102 0.000000 -0.042373
vn -0.999102 0.000000 -0.042373
vn -0.999102 0.000000 -0.042373
s off
g Page
usemtl initialShadingGroup
f 5/7/1 6/4/2 7/3/3 8/8/4
f 1/9/5 4/12/6 3/2/7 2/1/8
f 1/9/9 2/1/10 6/10/11 5/11/12
f 2/1/13 3/2/14 7/3/15 6/4/16
f 3/2/17 4/12/18 8/13/19 7/14/20
f 4/5/21 1/6/22 5/7/23 8/8/24
