# This file uses centimeters as units for non-parametric coordinates.

mtllib Pot_Vase.mtl
g default
v 0.173304 -0.036693 -0.240559
v 0.040675 -0.036693 -0.295495
v -0.091953 -0.036693 -0.240559
v -0.132612 -0.036693 -0.179708
v -0.146890 -0.036693 -0.107929
v -0.132612 -0.036693 -0.036152
v -0.031103 -0.036693 0.065358
v 0.112454 -0.036693 0.065358
v 0.213963 -0.036693 -0.036151
v 0.228240 -0.036693 -0.107929
v 0.173304 -0.012366 -0.240559
v 0.040675 -0.012366 -0.295495
v -0.091953 -0.012366 -0.240559
v -0.132612 -0.012366 -0.179708
v -0.146890 -0.012366 -0.107929
v -0.132612 -0.012366 -0.036152
v -0.031103 -0.012366 0.065358
v 0.112454 -0.012366 0.065358
v 0.213963 -0.012366 -0.036151
v 0.228240 -0.012366 -0.107929
v 0.162252 -0.012366 -0.229506
v 0.040675 -0.012366 -0.279864
v -0.080901 -0.012366 -0.229506
v -0.118172 -0.012366 -0.173726
v -0.131259 -0.012366 -0.107929
v -0.118172 -0.012366 -0.042133
v -0.025121 -0.012366 0.050917
v 0.106472 -0.012366 0.050917
v 0.199523 -0.012366 -0.042133
v 0.212610 -0.012366 -0.107929
v 0.187749 0.051240 -0.255003
v 0.040675 0.051240 -0.315923
v -0.106398 0.051240 -0.255003
v -0.151485 0.051240 -0.187525
v -0.167317 0.051240 -0.107929
v -0.151485 0.051240 -0.028334
v -0.038920 0.051240 0.084231
v 0.120272 0.051240 0.084231
v 0.232836 0.051240 -0.028334
v 0.248669 0.051240 -0.107929
v 0.245426 0.628584 -0.312679
v 0.040675 0.628584 -0.397490
v -0.164075 0.628584 -0.312680
v -0.226843 0.628584 -0.218740
v -0.248884 0.628584 -0.107929
v -0.226843 0.628584 0.002880
v -0.070135 0.628584 0.159590
v 0.151486 0.628584 0.159590
v 0.308194 0.628584 0.002881
v 0.330236 0.628584 -0.107929
v 0.135814 0.761664 -0.203067
v 0.040675 0.761664 -0.242475
v -0.054462 0.761664 -0.203067
v -0.083628 0.761664 -0.159418
v -0.093869 0.761664 -0.107929
v -0.083628 0.761664 -0.056442
v -0.010812 0.761664 0.016374
v 0.092164 0.761664 0.016374
v 0.164979 0.761664 -0.056441
v 0.175220 0.761664 -0.107929
v 0.148499 0.761664 -0.215753
v 0.040675 0.761664 -0.260414
v -0.067147 0.761664 -0.215753
v -0.100201 0.761664 -0.166284
v -0.111809 0.761664 -0.107929
v -0.100201 0.761664 -0.049577
v -0.017678 0.761664 0.032947
v 0.099029 0.761664 0.032947
v 0.181552 0.761664 -0.049576
v 0.193160 0.761664 -0.107929
v 0.148499 0.816302 -0.215753
v 0.040675 0.816302 -0.260414
v -0.067147 0.816302 -0.215753
v -0.100201 0.816302 -0.166284
v -0.111809 0.816302 -0.107929
v -0.100201 0.816302 -0.049577
v -0.017678 0.816302 0.032947
v 0.099029 0.816302 0.032947
v 0.181552 0.816302 -0.049576
v 0.193160 0.816302 -0.107929
v 0.121543 0.751159 -0.188797
v 0.040675 0.751159 -0.222293
v -0.040192 0.751159 -0.188797
v -0.064982 0.751159 -0.151694
v -0.073687 0.751159 -0.107929
v -0.064982 0.751159 -0.064165
v -0.003089 0.751159 -0.002271
v 0.084441 0.751159 -0.002271
v 0.146334 0.751159 -0.064164
v 0.155039 0.751159 -0.107929
v 0.091100 0.580189 -0.158354
v 0.040676 0.580189 -0.179240
v -0.009749 0.580189 -0.158354
v -0.025207 0.580189 -0.135219
v -0.030635 0.580189 -0.107929
v -0.025207 0.580189 -0.080640
v 0.013386 0.580189 -0.042047
v 0.067965 0.580189 -0.042047
v 0.106558 0.580189 -0.080640
v 0.111986 0.580189 -0.107929
v -0.275042 0.493551 0.022845
v -0.301054 0.493551 -0.107930
v -0.275042 0.493551 -0.238705
v -0.200965 0.493551 -0.349569
v 0.040675 0.493551 -0.449660
v 0.282315 0.493551 -0.349569
v 0.382405 0.493551 -0.107929
v 0.356392 0.493551 0.022846
v 0.171450 0.493551 0.207788
v -0.090099 0.493551 0.207788
v -0.204798 0.302788 -0.006251
v -0.225023 0.302788 -0.107929
v -0.204798 0.302788 -0.209608
v -0.147202 0.302788 -0.295807
v 0.040675 0.302788 -0.373628
v 0.228553 0.302788 -0.295807
v 0.306374 0.302788 -0.107929
v 0.286149 0.302788 -0.006251
v 0.142354 0.302788 0.137544
v -0.061003 0.302788 0.137544
vt 0.772562 0.675372
vt 0.774751 0.671385
vt 0.803564 0.670429
vt 0.805707 0.674579
vt 0.822789 0.647575
vt 0.827298 0.649409
vt 0.824679 0.633526
vt 0.829354 0.632277
vt 0.820714 0.620233
vt 0.824053 0.616906
vt 0.811924 0.609884
vt 0.813793 0.605722
vt 0.786028 0.600119
vt 0.783625 0.595691
vt 0.761249 0.612089
vt 0.758655 0.608381
vt 0.750875 0.636474
vt 0.746226 0.635054
vt 0.753683 0.650459
vt 0.749485 0.652179
vt 0.771343 0.677247
vt 0.806930 0.676549
vt 0.841008 0.676937
vt 0.859005 0.676510
vt 0.876121 0.676156
vt 0.892659 0.675373
vt 0.658858 0.671948
vt 0.687056 0.676543
vt 0.719095 0.677702
vt 0.737503 0.677422
vt 0.771806 0.692014
vt 0.806328 0.690959
vt 0.840994 0.690803
vt 0.858579 0.691132
vt 0.875990 0.690925
vt 0.892962 0.690386
vt 0.653086 0.686140
vt 0.685326 0.691088
vt 0.719516 0.691793
vt 0.736978 0.692606
vt 0.806636 0.744171
vt 0.771508 0.744947
vt 0.842713 0.743151
vt 0.861939 0.742965
vt 0.881494 0.742728
vt 0.901488 0.742082
vt 0.941545 0.736376
vt 0.677443 0.741857
vt 0.716074 0.743160
vt 0.735306 0.743859
vt 0.771932 0.852007
vt 0.770987 0.817752
vt 0.807376 0.814515
vt 0.806947 0.853197
vt 0.844428 0.811181
vt 0.832416 0.863985
vt 0.863328 0.811670
vt 0.844671 0.872989
vt 0.882886 0.811222
vt 0.853772 0.883086
vt 0.903086 0.811085
vt 0.860907 0.894217
vt 0.945273 0.812750
vt 0.709462 0.914296
vt 0.677471 0.810013
vt 0.719481 0.894229
vt 0.716193 0.811368
vt 0.734604 0.874482
vt 0.746800 0.864193
vt 0.735274 0.812173
vt 0.773149 0.854892
vt 0.805664 0.855752
vt 0.831207 0.866739
vt 0.841966 0.875141
vt 0.850760 0.884756
vt 0.857496 0.894968
vt 0.712030 0.916790
vt 0.722264 0.895632
vt 0.737537 0.875841
vt 0.748289 0.867193
vt 0.776532 0.865745
vt 0.802115 0.865627
vt 0.824860 0.874940
vt 0.833847 0.882245
vt 0.841661 0.890585
vt 0.847802 0.899695
vt 0.721953 0.921231
vt 0.731675 0.900664
vt 0.745518 0.882777
vt 0.754953 0.876235
vt 0.780074 0.881124
vt 0.798773 0.880568
vt 0.816146 0.887349
vt 0.823636 0.893100
vt 0.830115 0.899816
vt 0.835687 0.907243
vt 0.735493 0.924083
vt 0.743987 0.908103
vt 0.755683 0.894206
vt 0.763326 0.888874
vt 0.794789 0.914638
vt 0.786715 0.914838
vt 0.801801 0.919151
vt 0.805144 0.922516
vt 0.808412 0.926432
vt 0.811743 0.930712
vt 0.763320 0.939271
vt 0.769095 0.930333
vt 0.775456 0.922462
vt 0.779008 0.919148
vt 0.883474 0.783006
vt 0.904580 0.782667
vt 0.863448 0.783223
vt 0.844040 0.783531
vt 0.806340 0.785964
vt 0.771183 0.787507
vt 0.734879 0.783836
vt 0.716037 0.783260
vt 0.675050 0.781602
vt 0.952480 0.780527
vt 0.717454 0.852049
vt 0.735509 0.854006
vt 0.686800 0.848805
vt 0.661597 0.850253
vt 0.892951 0.849723
vt 0.876863 0.851008
vt 0.859711 0.852459
vt 0.841751 0.854160
vt 0.743737 0.633652
vt 0.747537 0.653638
vt 0.757091 0.606514
vt 0.781137 0.593702
vt 0.814546 0.603066
vt 0.826172 0.614935
vt 0.832100 0.631527
vt 0.829533 0.650988
vt 0.635598 0.813054
vt 0.844610 0.922325
vt 0.818641 0.939486
vt 0.858002 0.920099
vt 0.867696 0.916324
vt 0.917293 0.853809
vt 0.870216 0.914089
vt 0.925027 0.685803
vt 0.790088 0.593230
vt 0.921134 0.672243
vt 0.787835 0.595514
vt 0.637217 0.738078
vt 0.627344 0.781063
vn 0.707107 0.000000 -0.707107
vn 0.707107 0.000000 -0.707107
vn 0.000000 0.000000 -1.000000
vn 0.000000 0.000000 -1.000000
vn -0.555570 0.000000 -0.831469
vn -0.555570 0.000000 -0.831469
vn -0.923880 0.000000 -0.382683
vn -0.923880 0.000000 -0.382683
vn -1.000000 0.000000 -0.000002
vn -1.000000 0.000000 -0.000002
vn -0.831469 0.000000 0.555571
vn -0.831469 0.000000 0.555571
vn -0.382683 0.000000 0.923880
vn -0.382683 0.000000 0.923880
vn 0.382681 0.000000 0.923880
vn 0.382681 0.000000 0.923880
vn 0.831471 0.000000 0.555568
vn 0.831471 0.000000 0.555568
vn 0.980786 0.000000 -0.195089
vn 0.980786 0.000000 -0.195089
vn 0.000000 -1.000000 -0.000000
vn 0.000000 -1.000000 -0.000000
vn 0.000000 -1.000000 -0.000000
vn 0.000000 -1.000000 -0.000000
vn 0.000000 -1.000000 -0.000000
vn 0.000000 -1.000000 -0.000000
vn 0.000000 -1.000000 -0.000000
vn 0.000000 -1.000000 -0.000000
vn 0.000000 -1.000000 0.000000
vn 0.000000 -1.000000 0.000000
vn 0.000000 -1.000000 0.000000
vn 0.000000 -1.000000 0.000000
vn 0.000000 -1.000000 0.000000
vn 0.000000 -1.000000 0.000000
vn 0.000000 -1.000000 0.000000
vn 0.000000 -1.000000 0.000000
vn 0.000000 1.000000 0.000000
vn 0.000000 1.000000 0.000000
vn 0.000000 1.000000 0.000000
vn 0.000000 1.000000 0.000000
vn 0.000000 1.000000 0.000000
vn 0.000000 1.000000 0.000000
vn 0.000000 1.000000 -0.000000
vn 0.000000 1.000000 -0.000000
vn 0.000000 1.000000 -0.000000
vn 0.000000 1.000000 -0.000000
vn 0.000000 1.000000 -0.000000
vn 0.000000 1.000000 -0.000000
vn 0.000000 1.000000 -0.000000
vn 0.000000 1.000000 -0.000000
vn 0.000000 1.000000 -0.000000
vn 0.000000 1.000000 -0.000000
vn 0.000000 1.000000 0.000000
vn 0.000000 1.000000 0.000000
vn 0.000000 1.000000 0.000000
vn 0.000000 1.000000 0.000000
vn 0.681235 -0.268030 -0.681233
vn 0.615138 -0.493168 -0.615135
vn 0.000001 -0.493168 -0.869934
vn 0.000000 -0.268031 -0.963410
vn -0.480441 -0.485399 -0.730455
vn -0.534515 -0.264368 -0.802747
vn -0.803719 -0.493165 -0.332904
vn -0.889167 -0.271543 -0.368302
vn -0.869936 -0.493165 0.000000
vn -0.962427 -0.271541 -0.000000
vn -0.723403 -0.485398 0.490996
vn -0.801026 -0.264368 0.537091
vn -0.332910 -0.493168 0.803714
vn -0.368681 -0.268032 0.890075
vn 0.332908 -0.493166 0.803716
vn 0.368682 -0.268032 0.890075
vn 0.723403 -0.485396 0.490998
vn 0.801026 -0.264368 0.537091
vn 0.856233 -0.485399 -0.176787
vn 0.945588 -0.264368 -0.189669
vn 0.000000 -0.303768 -0.952746
vn 0.673694 -0.303767 -0.673693
vn -0.529532 -0.297521 -0.794404
vn -0.880969 -0.301225 -0.364906
vn -0.953554 -0.301224 0.000000
vn -0.793230 -0.297521 0.531289
vn -0.364601 -0.303768 0.880222
vn 0.364600 -0.303768 0.880223
vn 0.793230 -0.297520 0.531289
vn 0.936165 -0.297519 -0.187292
vn 0.517225 0.782968 -0.345599
vn 0.517225 0.782968 -0.345599
vn 0.000002 0.758750 -0.651381
vn 0.000002 0.758750 -0.651381
vn -0.373396 0.753386 -0.541281
vn -0.360436 0.751740 -0.552244
vn -0.601799 0.758751 -0.249270
vn -0.601799 0.758751 -0.249270
vn -0.651381 0.758750 -0.000000
vn -0.651381 0.758750 0.000000
vn -0.552113 0.753386 0.357185
vn -0.544334 0.751741 0.372272
vn -0.249273 0.758752 0.601796
vn -0.249272 0.758752 0.601796
vn 0.249272 0.758751 0.601797
vn 0.249273 0.758751 0.601797
vn 0.613772 0.782504 0.104744
vn 0.607172 0.783172 0.134105
vn 0.645981 0.752462 -0.128493
vn 0.645981 0.752462 -0.128493
vn 0.000000 -1.000000 0.000000
vn 0.000000 -1.000000 0.000000
vn 0.000000 -1.000000 0.000002
vn 0.000000 -1.000000 0.000002
vn 0.000000 -1.000000 0.000002
vn 0.000000 -1.000000 0.000002
vn 0.000000 -1.000000 -0.000000
vn 0.000000 -1.000000 -0.000000
vn 0.000000 -1.000000 0.000000
vn 0.000000 -1.000000 0.000000
vn 0.000000 -1.000000 0.000000
vn 0.000000 -1.000000 0.000000
vn 0.000000 -1.000000 0.000000
vn 0.000000 -1.000000 0.000000
vn 0.000000 -1.000000 0.000000
vn 0.000000 -1.000000 0.000000
vn 0.000000 -1.000000 0.000000
vn 0.000000 -1.000000 0.000000
vn 0.000000 -1.000000 0.000000
vn 0.000000 -1.000000 0.000000
vn 0.707107 0.000000 -0.707107
vn 0.707107 0.000000 -0.707107
vn 0.000000 0.000000 -1.000000
vn 0.000000 0.000000 -1.000000
vn -0.555566 0.000000 -0.831472
vn -0.555566 0.000000 -0.831472
vn -0.923881 0.000000 -0.382680
vn -0.923881 0.000000 -0.382680
vn -1.000000 0.000000 -0.000000
vn -1.000000 0.000000 -0.000000
vn -0.831469 0.000000 0.555571
vn -0.831469 0.000000 0.555571
vn -0.382684 0.000000 0.923879
vn -0.382684 0.000000 0.923879
vn 0.382683 0.000000 0.923880
vn 0.382683 0.000000 0.923880
vn 0.831470 0.000000 0.555570
vn 0.831470 0.000000 0.555570
vn 0.980786 0.000000 -0.195086
vn 0.980786 0.000000 -0.195086
vn -0.610286 0.505074 0.610288
vn -0.610287 0.505074 0.610287
vn 0.000000 0.505071 0.863078
vn 0.000000 0.505071 0.863078
vn 0.488204 0.498457 0.716378
vn 0.476653 0.497228 0.724960
vn 0.797378 0.505076 0.330283
vn 0.797379 0.505076 0.330280
vn 0.863076 0.505074 -0.000000
vn 0.863076 0.505074 -0.000000
vn 0.725193 0.498449 -0.475019
vn 0.717805 0.497220 -0.487369
vn 0.330290 0.505066 -0.797382
vn 0.330288 0.505066 -0.797382
vn -0.330285 0.505068 -0.797382
vn -0.330284 0.505068 -0.797383
vn -0.725193 0.498452 -0.475018
vn -0.717804 0.497223 -0.487367
vn -0.851770 0.498455 0.161339
vn -0.849670 0.497226 0.175574
vn -0.000000 0.244189 0.969728
vn -0.685701 0.244190 0.685701
vn -0.685700 0.244190 0.685702
vn 0.000000 0.244189 0.969728
vn 0.536359 0.239602 0.809265
vn 0.542669 0.239956 0.804942
vn 0.895914 0.244189 0.371093
vn 0.895914 0.244189 0.371093
vn 0.969728 0.244188 0.000000
vn 0.969728 0.244188 -0.000000
vn 0.809403 0.239954 -0.535994
vn 0.805228 0.239600 -0.542402
vn 0.371102 0.244190 -0.895910
vn 0.371101 0.244190 -0.895910
vn -0.371102 0.244190 -0.895910
vn -0.371102 0.244190 -0.895910
vn -0.805229 0.239601 -0.542401
vn -0.809403 0.239955 -0.535994
vn -0.952906 0.239953 0.185450
vn -0.951502 0.239600 0.192968
vn -0.997853 -0.065491 -0.000000
vn -0.833284 -0.064154 0.549110
vn -0.774806 0.353997 0.523796
vn -0.932805 0.360383 0.000000
vn -0.921897 -0.065492 -0.381859
vn -0.861800 0.360385 -0.356964
vn -0.559716 -0.064154 -0.826198
vn -0.515375 0.353999 -0.780431
vn 0.000002 0.360385 -0.932804
vn 0.000001 -0.065229 -0.997870
vn 0.659593 0.360383 -0.659591
vn 0.705601 -0.065229 -0.705600
vn 0.916276 0.353995 -0.187421
vn 0.979989 -0.064154 -0.188429
vn 0.833283 -0.064155 0.549112
vn 0.774806 0.353994 0.523798
vn 0.356967 0.360382 0.861800
vn 0.381867 -0.065230 0.921912
vn -0.356968 0.360383 0.861799
vn -0.381869 -0.065230 0.921912
s 1
g Pot2t_low
usemtl initialShadingGroup
f 11/1/1 1/2/2 2/3/3 12/4/4
f 12/4/4 2/3/3 3/5/5 13/6/6
f 3/5/5 4/7/7 14/8/8 13/6/6
f 4/7/7 5/9/9 15/10/10 14/8/8
f 5/9/9 6/11/11 16/12/12 15/10/10
f 16/12/12 6/11/11 7/13/13 17/147/14
f 17/14/14 7/13/13 8/15/15 18/16/16
f 18/16/16 8/15/15 9/17/17 19/18/18
f 9/17/17 10/19/19 20/20/20 19/18/18
f 20/20/20 10/19/19 1/2/2 11/1/1
s off
f 8/15/21 7/13/22 2/3/23 1/2/24
f 7/13/25 6/11/26 3/5/27 2/3/28
f 4/7/29 3/5/30 6/11/31 5/9/32
f 9/17/33 8/15/34 1/2/35 10/19/36
s 2
f 21/21/37 11/1/38 12/4/39 22/22/40
f 22/22/40 12/4/39 13/6/41 23/136/42
f 13/6/41 14/8/43 24/135/44 23/136/42
f 14/8/43 15/10/45 25/134/46 24/135/44
f 15/10/45 16/12/47 26/133/48 25/134/46
f 26/133/48 16/12/47 17/147/49 27/145/50
f 27/132/50 17/14/49 18/16/51 28/131/52
f 28/131/52 18/16/51 19/18/53 29/129/54
f 19/18/53 20/20/55 30/130/56 29/129/54
f 30/130/56 20/20/55 11/1/38 21/21/37
s 3
f 31/31/57 21/21/58 22/22/59 32/32/60
f 32/32/60 22/22/59 23/23/61 33/33/62
f 23/23/61 24/24/63 34/34/64 33/33/62
f 24/24/63 25/25/65 35/35/66 34/34/64
f 25/25/65 26/26/67 36/36/68 35/35/66
f 36/36/68 26/26/67 27/146/69 37/144/70
f 37/37/70 27/27/69 28/28/71 38/38/72
f 38/38/72 28/28/71 29/29/73 39/39/74
f 29/29/73 30/30/75 40/40/76 39/39/74
f 40/40/76 30/30/75 21/21/58 31/31/57
f 115/41/77 116/42/78 31/31/57 32/32/60
f 114/43/79 115/41/77 32/32/60 33/33/62
f 33/33/62 34/34/64 113/44/80 114/43/79
f 34/34/64 35/35/66 112/45/81 113/44/80
f 35/35/66 36/36/68 111/46/82 112/45/81
f 120/47/83 111/46/82 36/36/68 37/144/70
f 119/48/84 120/148/83 37/37/70 38/38/72
f 118/49/85 119/48/84 38/38/72 39/39/74
f 39/39/74 40/40/76 117/50/86 118/49/85
f 116/42/78 117/50/86 40/40/76 31/31/57
s 4
f 51/51/87 41/52/88 42/53/89 52/54/90
f 52/54/90 42/53/89 43/55/91 53/128/92
f 43/55/91 44/57/93 54/127/94 53/128/92
f 44/57/93 45/59/95 55/126/96 54/127/94
f 45/59/95 46/61/97 56/125/98 55/126/96
f 56/125/98 46/61/97 47/63/99 57/142/100
f 57/124/100 47/137/99 48/65/101 58/123/102
f 58/123/102 48/65/101 49/67/103 59/121/104
f 60/122/105 59/121/104 49/67/103 50/70/106 41/52/88 51/51/87
s 5
f 61/71/107 51/51/108 52/54/109 62/72/110
f 62/72/110 52/54/109 53/56/111 63/73/112
f 53/56/111 54/58/113 64/74/114 63/73/112
f 54/58/113 55/60/115 65/75/116 64/74/114
f 55/60/115 56/62/117 66/76/118 65/75/116
f 66/76/118 56/62/117 57/143/119 67/141/120
f 67/77/120 57/64/119 58/66/121 68/78/122
f 68/78/122 58/66/121 59/68/123 69/79/124
f 59/68/123 60/69/125 70/80/126 69/79/124
f 70/80/126 60/69/125 51/51/108 61/71/107
s 6
f 71/81/127 61/71/128 62/72/129 72/82/130
f 72/82/130 62/72/129 63/73/131 73/83/132
f 63/73/131 64/74/133 74/84/134 73/83/132
f 64/74/133 65/75/135 75/85/136 74/84/134
f 65/75/135 66/76/137 76/86/138 75/85/136
f 76/86/138 66/76/137 67/141/139 77/140/140
f 77/87/140 67/77/139 68/78/141 78/88/142
f 78/88/142 68/78/141 69/79/143 79/89/144
f 69/79/143 70/80/145 80/90/146 79/89/144
f 80/90/146 70/80/145 61/71/128 71/81/127
s 7
f 81/91/147 71/81/148 72/82/149 82/92/150
f 82/92/150 72/82/149 73/83/151 83/93/152
f 73/83/151 74/84/153 84/94/154 83/93/152
f 74/84/153 75/85/155 85/95/156 84/94/154
f 75/85/155 76/86/157 86/96/158 85/95/156
f 86/96/158 76/86/157 77/140/159 87/138/160
f 87/97/160 77/87/159 78/88/161 88/98/162
f 88/98/162 78/88/161 79/89/163 89/99/164
f 79/89/163 80/90/165 90/100/166 89/99/164
f 90/100/166 80/90/165 71/81/148 81/91/147
s 8
f 92/101/167 91/102/168 81/91/169 82/92/170
f 93/103/171 92/101/167 82/92/170 83/93/172
f 83/93/172 84/94/173 94/104/174 93/103/171
f 84/94/173 85/95/175 95/105/176 94/104/174
f 85/95/175 86/96/177 96/106/178 95/105/176
f 97/139/179 96/106/178 86/96/177 87/138/180
f 98/108/181 97/107/179 87/97/180 88/98/182
f 99/109/183 98/108/181 88/98/182 89/99/184
f 89/99/184 90/100/185 100/110/186 99/109/183
f 91/102/168 100/110/186 90/100/185 81/91/169
s 3
f 102/111/187 101/112/188 46/61/189 45/59/190
f 103/113/191 102/111/187 45/59/190 44/57/192
f 104/114/193 103/113/191 44/57/192 43/55/194
f 43/55/194 42/53/195 105/115/196 104/114/193
f 42/53/195 41/52/197 106/116/198 105/115/196
f 41/52/197 50/70/199 107/117/200 106/116/198
f 108/118/201 107/117/200 50/70/199 49/67/202
f 49/67/202 48/65/203 109/119/204 108/118/201
f 48/65/203 47/137/205 110/149/206 109/119/204
f 47/63/205 46/61/189 101/112/188 110/120/206
f 112/45/81 111/46/82 101/112/188 102/111/187
f 113/44/80 112/45/81 102/111/187 103/113/191
f 114/43/79 113/44/80 103/113/191 104/114/193
f 104/114/193 105/115/196 115/41/77 114/43/79
f 105/115/196 106/116/198 116/42/78 115/41/77
f 106/116/198 107/117/200 117/50/86 116/42/78
f 118/49/85 117/50/86 107/117/200 108/118/201
f 108/118/201 109/119/204 119/48/84 118/49/85
f 109/119/204 110/149/206 120/148/83 119/48/84
f 110/120/206 101/112/188 111/46/82 120/47/83
