# This file uses centimeters as units for non-parametric coordinates.

mtllib Pot_Round.mtl
g default
v 0.252412 -0.015638 -0.292612
v 0.067729 -0.015638 -0.369110
v -0.116953 -0.015638 -0.292612
v -0.173570 -0.015638 -0.207879
v -0.193451 -0.015638 -0.107929
v -0.173570 -0.015638 -0.007980
v -0.032220 -0.015638 0.133369
v 0.167679 -0.015638 0.133369
v 0.309029 -0.015638 -0.007980
v 0.328909 -0.015638 -0.107929
v 0.252412 0.018238 -0.292612
v 0.067729 0.018238 -0.369110
v -0.116953 0.018238 -0.292612
v -0.173570 0.018238 -0.207879
v -0.193451 0.018238 -0.107929
v -0.173570 0.018238 -0.007980
v -0.032220 0.018238 0.133369
v 0.167679 0.018238 0.133369
v 0.309029 0.018238 -0.007980
v 0.328909 0.018238 -0.107929
v 0.237022 0.018238 -0.277221
v 0.067729 0.018238 -0.347345
v -0.101563 0.018238 -0.277222
v -0.153462 0.018238 -0.199550
v -0.171686 0.018238 -0.107929
v -0.153462 0.018238 -0.016310
v -0.023891 0.018238 0.113261
v 0.159349 0.018238 0.113261
v 0.288920 0.018238 -0.016309
v 0.307144 0.018238 -0.107929
v 0.272525 0.106807 -0.312726
v 0.067730 0.106807 -0.397556
v -0.137067 0.106807 -0.312726
v -0.199849 0.106807 -0.218765
v -0.221896 0.106807 -0.107929
v -0.199849 0.106807 0.002905
v -0.043106 0.106807 0.159650
v 0.178565 0.106807 0.159650
v 0.335308 0.106807 0.002906
v 0.357355 0.106807 -0.107929
v 0.272525 0.589914 -0.312726
v 0.067730 0.589914 -0.397556
v -0.137067 0.589914 -0.312726
v -0.199849 0.589914 -0.218765
v -0.221896 0.589914 -0.107929
v -0.199849 0.589914 0.002905
v -0.043106 0.589914 0.159650
v 0.178565 0.589914 0.159650
v 0.335308 0.589914 0.002906
v 0.357355 0.589914 -0.107929
v 0.190494 0.733968 -0.230694
v 0.067730 0.733968 -0.281544
v -0.055035 0.733968 -0.230694
v -0.092669 0.733968 -0.174369
v -0.105885 0.733968 -0.107929
v -0.092669 0.733968 -0.041491
v 0.001290 0.733968 0.052469
v 0.134169 0.733968 0.052469
v 0.228128 0.733968 -0.041490
v 0.241344 0.733968 -0.107929
v 0.206862 0.733968 -0.247062
v 0.067730 0.733968 -0.304693
v -0.071404 0.733968 -0.247062
v -0.114056 0.733968 -0.183228
v -0.129033 0.733968 -0.107929
v -0.114056 0.733968 -0.032632
v -0.007569 0.733968 0.073856
v 0.143028 0.733968 0.073856
v 0.249514 0.733968 -0.032632
v 0.264493 0.733968 -0.107929
v 0.206862 0.761518 -0.247062
v 0.067730 0.761518 -0.304693
v -0.071404 0.761518 -0.247062
v -0.114056 0.761518 -0.183228
v -0.129033 0.761518 -0.107929
v -0.114056 0.761518 -0.032632
v -0.007569 0.761518 0.073856
v 0.143028 0.761518 0.073856
v 0.249514 0.761518 -0.032632
v 0.264493 0.761518 -0.107929
v 0.172079 0.728673 -0.212279
v 0.067730 0.728673 -0.255502
v -0.036621 0.728673 -0.212279
v -0.068610 0.728673 -0.164404
v -0.079843 0.728673 -0.107929
v -0.068610 0.728673 -0.051457
v 0.011256 0.728673 0.028410
v 0.124203 0.728673 0.028410
v 0.204069 0.728673 -0.051456
v 0.215302 0.728673 -0.107929
v 0.118165 0.541505 -0.158365
v 0.067730 0.541505 -0.179257
v 0.017294 0.541505 -0.158365
v 0.001833 0.541505 -0.135225
v -0.003597 0.541505 -0.107929
v 0.001833 0.541505 -0.080635
v 0.040434 0.541505 -0.042032
v 0.095025 0.541505 -0.042032
v 0.133627 0.541505 -0.080635
v 0.139056 0.541505 -0.107929
v -0.248059 0.454846 0.022874
v -0.274077 0.454846 -0.107929
v -0.248059 0.454846 -0.238734
v -0.173965 0.454846 -0.349623
v 0.067730 0.454846 -0.449737
v 0.309423 0.454846 -0.349623
v 0.409536 0.454846 -0.107929
v 0.383517 0.454846 0.022874
v 0.198534 0.454846 0.207858
v -0.063075 0.454846 0.207858
v -0.255535 0.264043 0.025971
v -0.282169 0.264043 -0.107929
v -0.255535 0.264043 -0.241831
v -0.179687 0.264043 -0.355346
v 0.067730 0.264043 -0.457829
v 0.315145 0.264043 -0.355345
v 0.417628 0.264043 -0.107929
v 0.390993 0.264043 0.025971
v 0.201630 0.264043 0.215335
v -0.066172 0.264043 0.215335
vt 0.175821 0.686098
vt 0.181354 0.682861
vt 0.211775 0.707051
vt 0.209913 0.712879
vt 0.249164 0.703617
vt 0.251083 0.710200
vt 0.264368 0.690421
vt 0.269470 0.694630
vt 0.273672 0.671973
vt 0.280116 0.673362
vt 0.274804 0.652609
vt 0.280732 0.650427
vt 0.254724 0.619856
vt 0.258394 0.614556
vt 0.218050 0.608906
vt 0.217541 0.602520
vt 0.184281 0.627818
vt 0.179622 0.622991
vt 0.175892 0.644850
vt 0.169623 0.643991
vt 0.169301 0.714217
vt 0.209033 0.715839
vt 0.251253 0.714229
vt 0.272534 0.713566
vt 0.294254 0.713104
vt 0.316514 0.712647
vt 0.357618 0.712318
vt 0.072342 0.700604
vt 0.108429 0.709716
vt 0.129475 0.711303
vt 0.168346 0.734050
vt 0.209793 0.735235
vt 0.252345 0.733980
vt 0.273822 0.733702
vt 0.295586 0.733313
vt 0.317583 0.733234
vt 0.361306 0.732007
vt 0.062623 0.719811
vt 0.104395 0.729183
vt 0.126184 0.731635
vt 0.209395 0.767889
vt 0.166550 0.766607
vt 0.252517 0.767394
vt 0.274275 0.766838
vt 0.296295 0.766315
vt 0.318630 0.765900
vt 0.365007 0.765498
vt 0.415558 0.762773
vt 0.098997 0.761763
vt 0.122302 0.763810
vt 0.168092 0.867564
vt 0.165731 0.832165
vt 0.208028 0.833459
vt 0.210106 0.869543
vt 0.249955 0.832247
vt 0.247233 0.869775
vt 0.271665 0.831947
vt 0.269358 0.867872
vt 0.293569 0.831597
vt 0.290612 0.866747
vt 0.315286 0.831914
vt 0.311254 0.866218
vt 0.357075 0.832346
vt 0.347562 0.870000
vt 0.399868 0.837696
vt 0.076656 0.864089
vt 0.101678 0.828034
vt 0.108835 0.865067
vt 0.123422 0.829786
vt 0.128454 0.864155
vt 0.185994 0.882999
vt 0.211001 0.873839
vt 0.247301 0.873896
vt 0.259695 0.876940
vt 0.272842 0.882414
vt 0.285236 0.890226
vt 0.305597 0.910601
vt 0.140851 0.938228
vt 0.153412 0.911437
vt 0.163047 0.899927
vt 0.188531 0.887917
vt 0.212724 0.879329
vt 0.245803 0.879252
vt 0.257990 0.882237
vt 0.270366 0.887358
vt 0.281673 0.894572
vt 0.301151 0.913783
vt 0.145922 0.940598
vt 0.158042 0.914271
vt 0.166843 0.904080
vt 0.194192 0.898097
vt 0.216338 0.890857
vt 0.241992 0.890993
vt 0.253841 0.893581
vt 0.264933 0.898003
vt 0.275306 0.904064
vt 0.291703 0.920584
vt 0.157651 0.941718
vt 0.167731 0.921095
vt 0.175329 0.911741
vt 0.223888 0.930948
vt 0.213264 0.934237
vt 0.235285 0.930974
vt 0.240883 0.932225
vt 0.246166 0.934292
vt 0.251002 0.937127
vt 0.258802 0.944797
vt 0.195639 0.954418
vt 0.200691 0.944763
vt 0.204309 0.940552
vt 0.295529 0.803597
vt 0.317838 0.803332
vt 0.273482 0.804108
vt 0.251754 0.804668
vt 0.208931 0.805295
vt 0.165938 0.803899
vt 0.121649 0.801102
vt 0.098541 0.799395
vt 0.411760 0.806861
vt 0.363320 0.803686
vt 0.049870 0.754280
vt 0.048823 0.797583
vt 0.058313 0.829733
vt 0.301958 0.941090
vt 0.263944 0.954493
vt 0.314002 0.939591
vt 0.074252 0.868249
vt 0.378789 0.877508
vt 0.318927 0.937058
vt 0.109440 0.869330
vt 0.127119 0.868533
vt 0.347264 0.874194
vt 0.377186 0.873195
vt 0.309717 0.870571
vt 0.290529 0.871180
vt 0.269678 0.872343
vt 0.167692 0.871786
vt 0.405320 0.725421
vt 0.217195 0.599289
vt 0.395727 0.705935
vt 0.177646 0.619713
vt 0.166152 0.644461
vt 0.260148 0.611774
vt 0.283680 0.648361
vt 0.284016 0.674154
vt 0.272493 0.697198
vt 0.173093 0.687854
vn 0.707107 0.000000 -0.707106
vn 0.707107 0.000000 -0.707106
vn 0.000000 0.000000 -1.000000
vn 0.000000 0.000000 -1.000000
vn -0.555569 0.000000 -0.831471
vn -0.555569 0.000000 -0.831471
vn -0.923880 0.000000 -0.382683
vn -0.923880 0.000000 -0.382683
vn -1.000000 0.000000 0.000000
vn -1.000000 0.000000 0.000000
vn -0.831469 0.000000 0.555571
vn -0.831469 0.000000 0.555571
vn -0.382682 0.000000 0.923880
vn -0.382682 0.000000 0.923880
vn 0.382682 0.000000 0.923880
vn 0.382682 0.000000 0.923880
vn 0.831471 0.000000 0.555568
vn 0.831471 0.000000 0.555568
vn 0.980785 0.000000 -0.195090
vn 0.980785 0.000000 -0.195090
vn 0.000000 -1.000000 0.000000
vn 0.000000 -1.000000 0.000000
vn 0.000000 -1.000000 0.000000
vn 0.000000 -1.000000 0.000000
vn 0.000000 -1.000000 0.000000
vn 0.000000 -1.000000 0.000000
vn 0.000000 -1.000000 0.000000
vn 0.000000 -1.000000 0.000000
vn 0.000000 -1.000000 0.000000
vn 0.000000 -1.000000 0.000000
vn 0.000000 -1.000000 0.000000
vn 0.000000 -1.000000 0.000000
vn 0.000000 -1.000000 0.000000
vn 0.000000 -1.000000 0.000000
vn 0.000000 -1.000000 0.000000
vn 0.000000 -1.000000 0.000000
vn 0.000000 1.000000 0.000000
vn 0.000000 1.000000 0.000000
vn 0.000000 1.000000 0.000000
vn 0.000000 1.000000 0.000000
vn 0.000000 1.000000 -0.000000
vn 0.000000 1.000000 -0.000000
vn 0.000000 1.000000 -0.000000
vn 0.000000 1.000000 -0.000000
vn 0.000000 1.000000 0.000000
vn 0.000000 1.000000 0.000000
vn 0.000000 1.000000 0.000000
vn 0.000000 1.000000 0.000000
vn 0.000000 1.000000 0.000000
vn 0.000000 1.000000 0.000000
vn 0.000000 1.000000 -0.000000
vn 0.000000 1.000000 -0.000000
vn 0.000000 1.000000 -0.000000
vn 0.000000 1.000000 -0.000000
vn 0.000000 1.000000 0.000000
vn 0.000000 1.000000 0.000000
vn 0.648757 -0.397783 -0.648755
vn 0.615139 -0.493167 -0.615135
vn 0.000001 -0.493170 -0.869933
vn 0.000001 -0.397784 -0.917479
vn -0.480439 -0.485401 -0.730455
vn -0.509987 -0.392282 -0.765525
vn -0.803715 -0.493170 -0.332905
vn -0.846416 -0.400829 -0.350594
vn -0.869934 -0.493169 0.000000
vn -0.916154 -0.400827 0.000000
vn -0.723401 -0.485403 0.490994
vn -0.764122 -0.392282 0.512086
vn -0.332907 -0.493171 0.803713
vn -0.351104 -0.397784 0.847640
vn 0.332907 -0.493172 0.803713
vn 0.351104 -0.397783 0.847641
vn 0.723401 -0.485402 0.490994
vn 0.764122 -0.392281 0.512088
vn 0.856235 -0.485395 -0.176789
vn 0.901924 -0.392282 -0.180690
vn 0.000000 -0.132095 -0.991237
vn 0.700911 -0.132096 -0.700909
vn -0.553238 -0.131119 -0.822639
vn -0.915269 -0.136220 -0.379113
vn -0.990679 -0.136219 -0.000000
vn -0.825938 -0.131117 0.548302
vn -0.379331 -0.132094 0.915784
vn 0.379329 -0.132095 0.915784
vn 0.825937 -0.131120 0.548303
vn 0.972892 -0.131121 -0.190493
vn 0.550725 0.627222 -0.550723
vn 0.550724 0.627222 -0.550723
vn -0.000000 0.627222 -0.778840
vn -0.000000 0.627222 -0.778840
vn -0.443235 0.620695 -0.646746
vn -0.430346 0.619124 -0.656877
vn -0.719554 0.627224 -0.298046
vn -0.719555 0.627224 -0.298046
vn -0.778840 0.627223 -0.000000
vn -0.778840 0.627223 0.000000
vn -0.656996 0.620695 0.427895
vn -0.648966 0.619125 0.442186
vn -0.298049 0.627224 0.719553
vn -0.298048 0.627224 0.719554
vn 0.298048 0.627223 0.719554
vn 0.298048 0.627223 0.719554
vn 0.656997 0.620694 0.427895
vn 0.648966 0.619123 0.442186
vn 0.770737 0.620691 -0.143901
vn 0.768787 0.619121 -0.160178
vn 0.000000 -1.000000 -0.000001
vn 0.000000 -1.000000 -0.000001
vn 0.000000 -1.000000 0.000000
vn 0.000000 -1.000000 0.000000
vn 0.000000 -1.000000 0.000000
vn 0.000000 -1.000000 0.000000
vn 0.000000 -1.000000 0.000000
vn 0.000000 -1.000000 0.000000
vn 0.000000 -1.000000 0.000001
vn 0.000000 -1.000000 0.000001
vn 0.000000 -1.000000 -0.000001
vn 0.000000 -1.000000 -0.000001
vn 0.000000 -1.000000 -0.000000
vn 0.000000 -1.000000 0.000000
vn 0.000000 -1.000000 0.000001
vn 0.000000 -1.000000 0.000001
vn 0.000000 -1.000000 0.000000
vn 0.000000 -1.000000 0.000000
vn 0.000000 -1.000000 -0.000001
vn 0.000000 -1.000000 -0.000001
vn 0.707107 0.000000 -0.707107
vn 0.707107 0.000000 -0.707107
vn 0.000002 0.000000 -1.000000
vn 0.000002 0.000000 -1.000000
vn -0.555569 0.000000 -0.831471
vn -0.555569 0.000000 -0.831471
vn -0.923882 0.000000 -0.382677
vn -0.923882 0.000000 -0.382677
vn -1.000000 0.000000 -0.000000
vn -1.000000 0.000000 -0.000000
vn -0.831471 0.000000 0.555568
vn -0.831471 0.000000 0.555568
vn -0.382685 0.000000 0.923879
vn -0.382685 0.000000 0.923879
vn 0.382685 0.000000 0.923879
vn 0.382685 0.000000 0.923879
vn 0.831471 0.000000 0.555568
vn 0.831471 0.000000 0.555568
vn 0.980786 0.000000 -0.195087
vn 0.980786 0.000000 -0.195087
vn -0.392652 0.831656 0.392649
vn -0.392652 0.831656 0.392649
vn -0.000002 0.831655 0.555292
vn -0.000002 0.831655 0.555292
vn 0.319698 0.827456 0.461639
vn 0.307638 0.825997 0.472321
vn 0.513026 0.831654 0.212498
vn 0.513026 0.831654 0.212497
vn 0.555292 0.831656 -0.000000
vn 0.555292 0.831656 -0.000001
vn 0.472022 0.827457 -0.304154
vn 0.464969 0.825999 -0.318637
vn 0.212501 0.831657 -0.513020
vn 0.212502 0.831657 -0.513020
vn -0.212502 0.831655 -0.513023
vn -0.212502 0.831655 -0.513023
vn -0.472025 0.827455 -0.304156
vn -0.464973 0.825996 -0.318639
vn -0.552487 0.827457 0.100366
vn -0.551513 0.825999 0.116446
vn -0.000000 0.377261 0.926107
vn -0.654857 0.377264 0.654854
vn -0.654857 0.377264 0.654854
vn 0.000000 0.377261 0.926107
vn 0.511623 0.370656 0.775149
vn 0.520911 0.371434 0.768562
vn 0.855613 0.377264 0.354399
vn 0.855613 0.377264 0.354399
vn 0.926107 0.377262 0.000000
vn 0.926106 0.377262 -0.000000
vn 0.775378 0.371431 -0.510713
vn 0.769318 0.370653 -0.520352
vn 0.354411 0.377263 -0.855609
vn 0.354409 0.377263 -0.855609
vn -0.354409 0.377264 -0.855609
vn -0.354409 0.377264 -0.855609
vn -0.769318 0.370656 -0.520350
vn -0.775378 0.371434 -0.510712
vn -0.911797 0.371432 0.175115
vn -0.909886 0.370654 0.186340
vn -0.985322 0.170706 -0.000000
vn -0.821113 0.165068 0.546375
vn -0.774809 0.353985 0.523799
vn -0.932808 0.360374 0.000000
vn -0.910320 0.170706 -0.377063
vn -0.861803 0.360375 -0.356967
vn -0.549518 0.165068 -0.819013
vn -0.515377 0.353989 -0.780435
vn 0.000000 0.360375 -0.932808
vn 0.000000 0.166743 -0.986000
vn 0.659595 0.360376 -0.659593
vn 0.697209 0.166743 -0.697207
vn 0.916277 0.353992 -0.187422
vn 0.967698 0.165068 -0.190560
vn 0.821113 0.165066 0.546376
vn 0.774807 0.353989 0.523800
vn 0.356969 0.360373 0.861803
vn 0.377326 0.166742 0.910946
vn -0.356971 0.360372 0.861803
vn -0.377326 0.166743 0.910945
s 1
g Pot1t_Low
usemtl initialShadingGroup
f 11/1/1 1/2/2 2/3/3 12/4/4
f 12/4/4 2/3/3 3/5/5 13/6/6
f 3/5/5 4/7/7 14/8/8 13/6/6
f 4/7/7 5/9/9 15/10/10 14/8/8
f 5/9/9 6/11/11 16/12/12 15/10/10
f 16/12/12 6/11/11 7/13/13 17/14/14
f 17/14/14 7/13/13 8/15/15 18/16/16
f 18/16/16 8/15/15 9/17/17 19/18/18
f 9/17/17 10/19/19 20/20/20 19/18/18
f 20/20/20 10/19/19 1/2/2 11/1/1
s off
f 8/15/21 7/13/22 2/3/23 1/2/24
f 7/13/25 6/11/26 3/5/27 2/3/28
f 4/7/29 3/5/30 6/11/31 5/9/32
f 9/17/33 8/15/34 1/2/35 10/19/36
s 2
f 21/147/37 11/1/38 12/4/39 22/22/40
f 22/22/40 12/4/39 13/6/41 23/23/42
f 13/6/41 14/8/43 24/146/44 23/23/42
f 14/8/43 15/10/45 25/145/46 24/146/44
f 15/10/45 16/12/47 26/144/48 25/145/46
f 26/144/48 16/12/47 17/14/49 27/143/50
f 27/143/50 17/14/49 18/16/51 28/139/52
f 28/139/52 18/16/51 19/18/53 29/141/54
f 19/18/53 20/20/55 30/142/56 29/141/54
f 30/142/56 20/20/55 11/1/38 21/147/37
s 3
f 31/31/57 21/21/58 22/22/59 32/32/60
f 32/32/60 22/22/59 23/23/61 33/33/62
f 23/23/61 24/24/63 34/34/64 33/33/62
f 24/24/63 25/25/65 35/35/66 34/34/64
f 25/25/65 26/26/67 36/36/68 35/35/66
f 36/36/68 26/26/67 27/27/69 37/37/70
f 37/37/70 27/27/69 28/140/71 38/138/72
f 38/38/72 28/28/71 29/29/73 39/39/74
f 29/29/73 30/30/75 40/40/76 39/39/74
f 40/40/76 30/30/75 21/21/58 31/31/57
f 115/41/77 116/42/78 31/31/57 32/32/60
f 114/43/79 115/41/77 32/32/60 33/33/62
f 33/33/62 34/34/64 113/44/80 114/43/79
f 34/34/64 35/35/66 112/45/81 113/44/80
f 35/35/66 36/36/68 111/46/82 112/45/81
f 120/47/83 111/46/82 36/36/68 37/37/70
f 119/48/84 120/47/83 37/37/70 38/138/72
f 118/49/85 119/121/84 38/38/72 39/39/74
f 39/39/74 40/40/76 117/50/86 118/49/85
f 116/42/78 117/50/86 40/40/76 31/31/57
s 4
f 51/51/87 41/52/88 42/53/89 52/54/90
f 52/54/90 42/53/89 43/55/91 53/56/92
f 43/55/91 44/57/93 54/58/94 53/56/92
f 44/57/93 45/59/95 55/60/96 54/58/94
f 45/59/95 46/61/97 56/62/98 55/60/96
f 56/62/98 46/61/97 47/63/99 57/64/100
f 57/64/100 47/63/99 48/65/101 58/133/102
f 58/66/102 48/123/101 49/67/103 59/68/104
f 49/67/103 50/69/105 60/70/106 59/68/104
f 60/70/106 50/69/105 41/52/88 51/51/87
s 5
f 61/137/107 51/51/108 52/54/109 62/72/110
f 62/72/110 52/54/109 53/56/111 63/73/112
f 53/56/111 54/58/113 64/136/114 63/73/112
f 54/58/113 55/60/115 65/135/116 64/136/114
f 55/60/115 56/62/117 66/134/118 65/135/116
f 66/134/118 56/62/117 57/64/119 67/132/120
f 67/132/120 57/64/119 58/133/121 68/128/122
f 68/127/122 58/66/121 59/68/123 69/130/124
f 59/68/123 60/70/125 70/131/126 69/130/124
f 70/131/126 60/70/125 51/51/108 61/137/107
s 6
f 71/81/127 61/71/128 62/72/129 72/82/130
f 72/82/130 62/72/129 63/73/131 73/83/132
f 63/73/131 64/74/133 74/84/134 73/83/132
f 64/74/133 65/75/135 75/85/136 74/84/134
f 65/75/135 66/76/137 76/86/138 75/85/136
f 76/86/138 66/76/137 67/77/139 77/87/140
f 77/87/140 67/77/139 68/129/141 78/126/142
f 78/88/142 68/78/141 69/79/143 79/89/144
f 69/79/143 70/80/145 80/90/146 79/89/144
f 80/90/146 70/80/145 61/71/128 71/81/127
s 7
f 81/91/147 71/81/148 72/82/149 82/92/150
f 82/92/150 72/82/149 73/83/151 83/93/152
f 73/83/151 74/84/153 84/94/154 83/93/152
f 74/84/153 75/85/155 85/95/156 84/94/154
f 75/85/155 76/86/157 86/96/158 85/95/156
f 86/96/158 76/86/157 77/87/159 87/97/160
f 87/97/160 77/87/159 78/126/161 88/124/162
f 88/98/162 78/88/161 79/89/163 89/99/164
f 79/89/163 80/90/165 90/100/166 89/99/164
f 90/100/166 80/90/165 71/81/148 81/91/147
s 8
f 92/101/167 91/102/168 81/91/169 82/92/170
f 93/103/171 92/101/167 82/92/170 83/93/172
f 83/93/172 84/94/173 94/104/174 93/103/171
f 84/94/173 85/95/175 95/105/176 94/104/174
f 85/95/175 86/96/177 96/106/178 95/105/176
f 97/107/179 96/106/178 86/96/177 87/97/180
f 98/125/181 97/107/179 87/97/180 88/124/182
f 99/109/183 98/108/181 88/98/182 89/99/184
f 89/99/184 90/100/185 100/110/186 99/109/183
f 91/102/168 100/110/186 90/100/185 81/91/169
s 3
f 102/111/187 101/112/188 46/61/189 45/59/190
f 103/113/191 102/111/187 45/59/190 44/57/192
f 104/114/193 103/113/191 44/57/192 43/55/194
f 43/55/194 42/53/195 105/115/196 104/114/193
f 42/53/195 41/52/197 106/116/198 105/115/196
f 41/52/197 50/69/199 107/117/200 106/116/198
f 108/118/201 107/117/200 50/69/199 49/67/202
f 49/67/202 48/123/203 109/122/204 108/118/201
f 48/65/203 47/63/205 110/120/206 109/119/204
f 47/63/205 46/61/189 101/112/188 110/120/206
f 112/45/81 111/46/82 101/112/188 102/111/187
f 113/44/80 112/45/81 102/111/187 103/113/191
f 114/43/79 113/44/80 103/113/191 104/114/193
f 104/114/193 105/115/196 115/41/77 114/43/79
f 105/115/196 106/116/198 116/42/78 115/41/77
f 106/116/198 107/117/200 117/50/86 116/42/78
f 118/49/85 117/50/86 107/117/200 108/118/201
f 108/118/201 109/122/204 119/121/84 118/49/85
f 109/119/204 110/120/206 120/47/83 119/48/84
f 110/120/206 101/112/188 111/46/82 120/47/83
