# This file uses centimeters as units for non-parametric coordinates.

mtllib Stool.mtl
g default
v 0.382992 -0.005475 -0.008787
v 0.382992 -0.005475 -0.073470
v 0.229343 0.642225 -0.008787
v 0.229343 0.642225 -0.073470
v 0.294026 0.642225 -0.008787
v 0.294026 0.642225 -0.073470
v 0.495121 -0.005475 -0.008787
v 0.495121 -0.005475 -0.073470
v 0.229343 0.387399 -0.008787
v 0.294026 0.387399 -0.008787
v 0.294026 0.387399 -0.073470
v 0.229343 0.387399 -0.073470
v 0.323455 0.213669 -0.008787
v 0.388138 0.213669 -0.008787
v 0.388138 0.213669 -0.073470
v 0.323455 0.213669 -0.073470
v -0.392222 -0.005475 -0.008787
v -0.392222 -0.005475 -0.073470
v -0.238573 0.642225 -0.008787
v -0.238573 0.642225 -0.073470
v -0.303256 0.642225 -0.008787
v -0.303256 0.642225 -0.073470
v -0.504351 -0.005475 -0.008787
v -0.504351 -0.005475 -0.073470
v -0.238573 0.387399 -0.008787
v -0.303256 0.387399 -0.008787
v -0.303256 0.387399 -0.073470
v -0.238573 0.387399 -0.073470
v -0.332684 0.213669 -0.008787
v -0.397367 0.213669 -0.008787
v -0.397367 0.213669 -0.073470
v -0.332684 0.213669 -0.073470
v -0.036956 -0.005475 0.346479
v 0.027727 -0.005475 0.346479
v -0.036956 0.642225 0.192830
v 0.027727 0.642225 0.192830
v -0.036956 0.642225 0.257513
v 0.027727 0.642225 0.257513
v -0.036956 -0.005475 0.458608
v 0.027727 -0.005475 0.458608
v -0.036956 0.387399 0.192830
v -0.036956 0.387399 0.257513
v 0.027727 0.387399 0.257513
v 0.027727 0.387399 0.192830
v -0.036956 0.213669 0.286941
v -0.036956 0.213669 0.351624
v 0.027727 0.213669 0.351624
v 0.027727 0.213669 0.286941
v -0.036956 -0.005475 -0.428735
v 0.027727 -0.005475 -0.428735
v -0.036956 0.642225 -0.275086
v 0.027727 0.642225 -0.275086
v -0.036956 0.642225 -0.339769
v 0.027727 0.642225 -0.339769
v -0.036956 -0.005475 -0.540864
v 0.027727 -0.005475 -0.540864
v -0.036956 0.387399 -0.275086
v -0.036956 0.387399 -0.339769
v 0.027727 0.387399 -0.339769
v 0.027727 0.387399 -0.275086
v -0.036956 0.213669 -0.369198
v -0.036956 0.213669 -0.433881
v 0.027727 0.213669 -0.433881
v 0.027727 0.213669 -0.369198
v 0.301819 0.592569 -0.176418
v 0.229153 0.592569 -0.285171
v 0.120400 0.592569 -0.357837
v -0.007882 0.592569 -0.383354
v -0.136164 0.592569 -0.357837
v -0.244917 0.592569 -0.285171
v -0.317583 0.592569 -0.176418
v -0.343100 0.592569 -0.048136
v -0.317583 0.592569 0.080146
v -0.244917 0.592569 0.188899
v -0.136164 0.592569 0.261565
v -0.007882 0.592569 0.287082
v 0.120400 0.592569 0.261565
v 0.229153 0.592569 0.188899
v 0.301819 0.592569 0.080146
v 0.327336 0.592569 -0.048136
v 0.301819 0.691359 -0.176418
v 0.229153 0.691359 -0.285171
v 0.120400 0.691359 -0.357837
v -0.007882 0.691359 -0.383354
v -0.136164 0.691359 -0.357837
v -0.244917 0.691359 -0.285171
v -0.317583 0.691359 -0.176418
v -0.343100 0.691359 -0.048136
v -0.317583 0.691359 0.080146
v -0.244917 0.691359 0.188899
v -0.136164 0.691359 0.261565
v -0.007882 0.691359 0.287082
v 0.120400 0.691359 0.261565
v 0.229153 0.691359 0.188899
v 0.301819 0.691359 0.080146
v 0.327336 0.691359 -0.048136
vt 0.591376 0.090292
vt 0.582202 0.146208
vt 0.565895 0.144748
vt 0.575348 0.087869
vt 0.573473 0.256939
vt 0.537158 0.244983
vt 0.548453 0.242451
vt 0.557142 0.255027
vt 0.535282 0.137476
vt 0.533809 0.076456
vt 0.549937 0.076114
vt 0.551447 0.137436
vt 0.532786 0.187313
vt 0.581836 0.193821
vt 0.550701 0.187881
vt 0.565864 0.192787
vt 0.697645 0.086390
vt 0.656807 0.045454
vt 0.641052 0.142375
vt 0.624746 0.144007
vt 0.677219 0.252566
vt 0.650393 0.252532
vt 0.659008 0.239899
vt 0.670293 0.242416
vt 0.671670 0.134875
vt 0.655476 0.134962
vt 0.656398 0.073621
vt 0.672567 0.073832
vt 0.674434 0.184735
vt 0.690967 0.189793
vt 0.656529 0.185363
vt 0.641403 0.190375
vt 0.906406 0.623127
vt 0.956168 0.720605
vt 0.939857 0.719287
vt 0.949005 0.662418
vt 0.948989 0.831259
vt 0.912497 0.819856
vt 0.923750 0.817154
vt 0.932631 0.829599
vt 0.909187 0.712294
vt 0.907350 0.651241
vt 0.923523 0.650763
vt 0.925349 0.712104
vt 0.907265 0.762230
vt 0.956391 0.768073
vt 0.925182 0.762561
vt 0.940409 0.767259
vt 0.846500 0.651213
vt 0.780041 0.649320
vt 0.789007 0.706220
vt 0.772685 0.707448
vt 0.822821 0.817118
vt 0.795978 0.816531
vt 0.804869 0.804087
vt 0.816107 0.806830
vt 0.819712 0.699285
vt 0.803545 0.699091
vt 0.805513 0.637768
vt 0.821636 0.638227
vt 0.821451 0.749232
vt 0.837885 0.754587
vt 0.803518 0.749529
vt 0.788267 0.754216
vt 0.690991 0.405982
vt 0.720461 0.417828
vt 0.720713 0.441816
vt 0.691498 0.454277
vt 0.752220 0.417495
vt 0.752472 0.441483
vt 0.781435 0.405033
vt 0.781941 0.453329
vt 0.803657 0.382341
vt 0.804634 0.475551
vt 0.815503 0.352871
vt 0.817096 0.504765
vt 0.879259 0.416163
vt 0.879510 0.440151
vt 0.911018 0.415830
vt 0.911270 0.439818
vt 0.780015 0.269675
vt 0.783361 0.588687
vt 0.750546 0.257829
vt 0.754146 0.601149
vt 0.718786 0.258162
vt 0.722387 0.601482
vt 0.689572 0.270624
vt 0.692917 0.589635
vt 0.667350 0.293317
vt 0.670224 0.567414
vt 0.655504 0.322786
vt 0.657763 0.538199
vt 0.625182 0.418827
vt 0.625434 0.442815
vt 0.656942 0.418494
vt 0.657193 0.442482
vt 0.834003 0.706650
vt 0.772278 0.754973
vt 0.775987 0.621449
vt 0.759921 0.623789
vt 0.763995 0.651633
vt 0.894874 0.719624
vt 0.890817 0.767534
vt 0.922628 0.622604
vt 0.965037 0.664826
vt 0.882472 0.664226
vt 0.686109 0.142001
vt 0.625445 0.191552
vt 0.631110 0.085618
vt 0.615118 0.088190
vt 0.673035 0.045701
vt 0.520901 0.144656
vt 0.516268 0.192375
vt 0.579497 0.060036
vt 0.595553 0.062441
vt 0.508865 0.089262
vt 0.974537 0.415164
vt 0.466385 0.420492
vt 0.466637 0.444480
vt 0.974789 0.439152
vt 0.669276 0.476970
vt 0.688953 0.442149
vt 0.657430 0.506440
vt 0.593674 0.443148
vt 0.561915 0.443481
vt 0.530156 0.443814
vt 0.498396 0.444147
vt 0.943029 0.439485
vt 0.805582 0.565994
vt 0.817429 0.536525
vt 0.847751 0.440484
vt 0.815991 0.440817
vt 0.784232 0.441150
vt 0.668299 0.383760
vt 0.688701 0.418161
vt 0.655837 0.354546
vt 0.593423 0.419160
vt 0.561664 0.419493
vt 0.529904 0.419826
vt 0.498145 0.420159
vt 0.942777 0.415497
vt 0.802708 0.291897
vt 0.815170 0.321112
vt 0.847499 0.416496
vt 0.815739 0.416829
vt 0.783980 0.417162
vt 0.905755 0.830121
vt 0.530256 0.255141
vt 0.779616 0.818195
vt 0.634088 0.254549
vn -0.965020 -0.262178 0.000000
vn -0.931311 -0.364226 0.000000
vn -0.931311 -0.364226 0.000000
vn -0.965020 -0.262178 0.000000
vn 0.000000 1.000000 0.000000
vn 0.000000 1.000000 0.000000
vn 0.000000 1.000000 0.000000
vn 0.000000 1.000000 0.000000
vn 0.890166 0.455637 0.000000
vn 0.898633 0.438702 0.000000
vn 0.898633 0.438702 0.000000
vn 0.890166 0.455637 0.000000
vn 0.000000 -1.000000 0.000000
vn 0.000000 -1.000000 0.000000
vn 0.000000 -1.000000 0.000000
vn 0.000000 -1.000000 0.000000
vn 0.000000 0.000000 -1.000000
vn 0.000000 0.000000 -1.000000
vn 0.000000 0.000000 -1.000000
vn 0.000000 0.000000 -1.000000
vn 0.000000 0.000000 1.000000
vn 0.000000 0.000000 1.000000
vn 0.000000 0.000000 1.000000
vn 0.000000 0.000000 1.000000
vn 0.000000 0.000000 1.000000
vn 0.000000 0.000000 1.000000
vn 0.000000 0.000000 1.000000
vn 0.000000 0.000000 1.000000
vn 1.000000 0.000000 0.000000
vn 0.976726 0.214490 0.000000
vn 0.976726 0.214490 0.000000
vn 1.000000 0.000000 0.000000
vn 0.000000 0.000000 -1.000000
vn 0.000000 0.000000 -1.000000
vn 0.000000 0.000000 -1.000000
vn 0.000000 0.000000 -1.000000
vn -0.976726 -0.214490 0.000000
vn -1.000000 0.000000 0.000000
vn -1.000000 0.000000 0.000000
vn -0.976726 -0.214490 0.000000
vn 0.965020 -0.262178 0.000000
vn 0.965020 -0.262178 0.000000
vn 0.931311 -0.364226 0.000000
vn 0.931311 -0.364226 0.000000
vn 0.000000 1.000000 0.000000
vn 0.000000 1.000000 0.000000
vn 0.000000 1.000000 0.000000
vn 0.000000 1.000000 0.000000
vn -0.890166 0.455637 0.000000
vn -0.890166 0.455637 0.000000
vn -0.898633 0.438702 0.000000
vn -0.898633 0.438702 0.000000
vn 0.000000 -1.000000 0.000000
vn 0.000000 -1.000000 0.000000
vn 0.000000 -1.000000 0.000000
vn 0.000000 -1.000000 0.000000
vn 0.000000 0.000000 -1.000000
vn 0.000000 0.000000 -1.000000
vn 0.000000 0.000000 -1.000000
vn 0.000000 0.000000 -1.000000
vn 0.000000 0.000000 1.000000
vn 0.000000 0.000000 1.000000
vn 0.000000 0.000000 1.000000
vn 0.000000 0.000000 1.000000
vn 0.000000 0.000000 1.000000
vn 0.000000 0.000000 1.000000
vn 0.000000 0.000000 1.000000
vn 0.000000 0.000000 1.000000
vn -1.000000 0.000000 0.000000
vn -1.000000 0.000000 0.000000
vn -0.976726 0.214490 0.000000
vn -0.976726 0.214490 0.000000
vn 0.000000 0.000000 -1.000000
vn 0.000000 0.000000 -1.000000
vn 0.000000 0.000000 -1.000000
vn 0.000000 0.000000 -1.000000
vn 0.976726 -0.214490 0.000000
vn 0.976726 -0.214490 0.000000
vn 1.000000 0.000000 0.000000
vn 1.000000 0.000000 0.000000
vn 0.000000 -0.262178 -0.965020
vn 0.000000 -0.364226 -0.931311
vn 0.000000 -0.364226 -0.931311
vn 0.000000 -0.262178 -0.965020
vn 0.000000 1.000000 0.000000
vn 0.000000 1.000000 0.000000
vn 0.000000 1.000000 0.000000
vn 0.000000 1.000000 0.000000
vn 0.000000 0.455637 0.890166
vn 0.000000 0.438702 0.898632
vn 0.000000 0.438702 0.898632
vn 0.000000 0.455637 0.890166
vn 0.000000 -1.000000 0.000000
vn 0.000000 -1.000000 0.000000
vn 0.000000 -1.000000 0.000000
vn 0.000000 -1.000000 0.000000
vn 1.000000 0.000001 0.000000
vn 1.000000 0.000000 0.000000
vn 1.000000 0.000001 0.000000
vn 1.000000 0.000001 0.000000
vn -1.000000 0.000000 0.000000
vn -1.000000 -0.000000 0.000000
vn -1.000000 -0.000000 0.000000
vn -1.000000 0.000000 0.000000
vn -1.000000 -0.000000 0.000000
vn -1.000000 0.000000 0.000000
vn -1.000000 0.000000 0.000000
vn -1.000000 -0.000000 0.000000
vn 0.000000 0.000000 1.000000
vn 0.000000 0.214490 0.976726
vn 0.000000 0.214490 0.976726
vn 0.000000 0.000000 1.000000
vn 1.000000 0.000000 0.000000
vn 1.000000 0.000000 0.000000
vn 1.000000 0.000000 0.000000
vn 1.000000 0.000000 0.000000
vn 0.000000 -0.214490 -0.976726
vn 0.000000 0.000000 -1.000000
vn 0.000000 0.000000 -1.000000
vn 0.000000 -0.214490 -0.976726
vn 0.000000 -0.262178 0.965020
vn 0.000000 -0.262178 0.965020
vn 0.000000 -0.364226 0.931311
vn 0.000000 -0.364226 0.931311
vn 0.000000 1.000000 0.000000
vn 0.000000 1.000000 0.000000
vn 0.000000 1.000000 0.000000
vn 0.000000 1.000000 0.000000
vn 0.000000 0.455637 -0.890166
vn 0.000000 0.455637 -0.890166
vn 0.000000 0.438702 -0.898632
vn 0.000000 0.438702 -0.898632
vn 0.000000 -1.000000 0.000000
vn 0.000000 -1.000000 0.000000
vn 0.000000 -1.000000 0.000000
vn 0.000000 -1.000000 0.000000
vn 1.000000 0.000000 0.000000
vn 1.000000 0.000000 0.000000
vn 1.000000 0.000000 0.000000
vn 1.000000 0.000000 0.000000
vn -1.000000 -0.000001 0.000000
vn -1.000000 -0.000001 0.000000
vn -1.000000 -0.000000 0.000000
vn -1.000000 -0.000001 0.000000
vn -1.000000 0.000000 0.000000
vn -1.000000 0.000000 0.000000
vn -1.000000 0.000000 0.000000
vn -1.000000 0.000000 0.000000
vn 0.000000 0.000000 -1.000000
vn 0.000000 0.000000 -1.000000
vn 0.000000 0.214490 -0.976726
vn 0.000000 0.214490 -0.976726
vn 1.000000 0.000000 0.000000
vn 1.000000 0.000000 0.000000
vn 1.000000 0.000000 0.000000
vn 1.000000 0.000000 0.000000
vn 0.000000 -0.214490 0.976726
vn 0.000000 -0.214490 0.976726
vn 0.000000 0.000000 1.000000
vn 0.000000 0.000000 1.000000
vn 0.923879 0.000000 -0.382684
vn 0.707108 0.000000 -0.707106
vn 0.707108 0.000000 -0.707106
vn 0.923879 0.000000 -0.382684
vn 0.382685 0.000000 -0.923879
vn 0.382685 0.000000 -0.923879
vn 0.000001 0.000000 -1.000000
vn 0.000001 0.000000 -1.000000
vn -0.382683 0.000000 -0.923880
vn -0.382683 0.000000 -0.923880
vn -0.707107 0.000000 -0.707107
vn -0.707107 0.000000 -0.707107
vn -0.923879 0.000000 -0.382684
vn -0.923879 0.000000 -0.382684
vn -1.000000 0.000000 -0.000000
vn -1.000000 0.000000 -0.000000
vn -0.923880 0.000000 0.382683
vn -0.923880 0.000000 0.382683
vn -0.707106 0.000000 0.707107
vn -0.707106 0.000000 0.707107
vn -0.382684 0.000000 0.923879
vn -0.382684 0.000000 0.923879
vn -0.000001 0.000000 1.000000
vn -0.000001 0.000000 1.000000
vn 0.382684 0.000000 0.923879
vn 0.382684 0.000000 0.923879
vn 0.707107 0.000000 0.707107
vn 0.707107 0.000000 0.707107
vn 0.923880 0.000000 0.382683
vn 0.923880 0.000000 0.382683
vn 1.000000 0.000000 0.000000
vn 1.000000 0.000000 0.000000
vn 0.000000 -1.000000 0.000000
vn 0.000000 -1.000000 0.000000
vn 0.000000 -1.000000 0.000000
vn 0.000000 -1.000000 0.000000
vn 0.000000 -1.000000 0.000000
vn 0.000000 -1.000000 0.000000
vn 0.000000 -1.000000 0.000000
vn 0.000000 -1.000000 0.000000
vn 0.000000 -1.000000 0.000000
vn 0.000000 -1.000000 0.000000
vn 0.000000 -1.000000 0.000000
vn 0.000000 -1.000000 0.000000
vn 0.000000 -1.000000 0.000000
vn 0.000000 -1.000000 0.000000
vn 0.000000 -1.000000 0.000000
vn 0.000000 -1.000000 0.000000
vn 0.000000 -1.000000 0.000000
vn 0.000000 -1.000000 0.000000
vn 0.000000 -1.000000 0.000000
vn 0.000000 -1.000000 0.000000
vn 0.000000 -1.000000 0.000000
vn 0.000000 -1.000000 0.000000
vn 0.000000 -1.000000 0.000000
vn 0.000000 -1.000000 0.000000
vn 0.000000 -1.000000 0.000000
vn 0.000000 -1.000000 0.000000
vn 0.000000 -1.000000 0.000000
vn 0.000000 -1.000000 0.000000
vn 0.000000 1.000000 0.000000
vn 0.000000 1.000000 0.000000
vn 0.000000 1.000000 0.000000
vn 0.000000 1.000000 0.000000
vn 0.000000 1.000000 0.000000
vn 0.000000 1.000000 0.000000
vn 0.000000 1.000000 0.000000
vn 0.000000 1.000000 0.000000
vn 0.000000 1.000000 0.000000
vn 0.000000 1.000000 0.000000
vn 0.000000 1.000000 0.000000
vn 0.000000 1.000000 0.000000
vn 0.000000 1.000000 0.000000
vn 0.000000 1.000000 0.000000
vn 0.000000 1.000000 0.000000
vn 0.000000 1.000000 0.000000
vn 0.000000 1.000000 0.000000
vn 0.000000 1.000000 0.000000
vn 0.000000 1.000000 0.000000
vn 0.000000 1.000000 0.000000
vn 0.000000 1.000000 0.000000
vn 0.000000 1.000000 0.000000
vn 0.000000 1.000000 0.000000
vn 0.000000 1.000000 0.000000
vn 0.000000 1.000000 0.000000
vn 0.000000 1.000000 0.000000
vn 0.000000 1.000000 0.000000
vn 0.000000 1.000000 0.000000
s 1
g Stool
usemtl initialShadingGroup
f 1/1/1 13/2/2 16/3/3 2/4/4
s off
f 3/148/5 5/6/6 6/7/7 4/8/8
s 2
f 14/9/9 7/10/10 8/11/11 15/12/12
s off
f 7/115/13 1/1/14 2/4/15 8/114/16
s 3
f 2/4/17 16/3/18 15/12/19 8/11/20
s 4
f 7/10/21 14/9/22 13/112/23 1/116/24
f 10/13/25 5/6/26 3/148/27 9/113/28
s 2
f 5/6/29 10/13/30 11/15/31 6/7/32
s 3
f 12/16/33 4/8/34 6/7/35 11/15/36
s 1
f 9/14/37 3/5/38 4/8/39 12/16/40
s 4
f 14/9/22 10/13/25 9/113/28 13/112/23
s 2
f 10/13/30 14/9/9 15/12/12 11/15/31
s 3
f 16/3/18 12/16/33 11/15/36 15/12/19
s 1
f 13/2/2 9/14/37 12/16/40 16/3/3
s 5
f 17/110/41 18/109/42 32/19/43 29/20/44
s off
f 19/21/45 20/22/46 22/23/47 21/24/48
s 6
f 30/25/49 31/26/50 24/27/51 23/28/52
s off
f 23/28/53 24/27/54 18/18/55 17/111/56
s 7
f 18/109/57 24/27/58 31/26/59 32/19/60
s 8
f 23/28/61 17/17/62 29/107/63 30/25/64
f 26/29/65 25/30/66 19/21/67 21/24/68
s 6
f 21/24/69 22/23/70 27/31/71 26/29/72
s 7
f 28/32/73 27/31/74 22/23/75 20/22/76
s 5
f 25/108/77 28/32/78 20/22/79 19/150/80
s 8
f 30/25/64 29/107/63 25/30/66 26/29/65
s 6
f 26/29/72 27/31/71 31/26/50 30/25/49
s 7
f 32/19/60 31/26/59 27/31/74 28/32/73
s 5
f 29/20/44 32/19/43 28/32/78 25/108/77
s 9
f 33/105/81 45/34/82 48/35/83 34/36/84
s off
f 35/147/85 37/38/86 38/39/87 36/40/88
s 10
f 46/41/89 39/42/90 40/43/91 47/44/92
s off
f 39/42/93 33/33/94 34/104/95 40/43/96
s 11
f 34/36/97 48/35/98 47/44/99 40/43/100
s 12
f 39/42/101 46/41/102 45/102/103 33/106/104
f 42/45/105 37/38/106 35/147/107 41/103/108
s 10
f 37/38/109 42/45/110 43/47/111 38/39/112
s 11
f 44/48/113 36/40/114 38/39/115 43/47/116
s 9
f 41/46/117 35/37/118 36/40/119 44/48/120
s 12
f 46/41/102 42/45/105 41/103/108 45/102/103
s 10
f 42/45/110 46/41/89 47/44/92 43/47/111
s 11
f 48/35/98 44/48/113 43/47/116 47/44/99
s 9
f 45/34/82 41/46/117 44/48/120 48/35/83
s 13
f 49/101/121 50/50/122 64/51/123 61/52/124
s off
f 51/53/125 52/54/126 54/55/127 53/56/128
s 14
f 62/57/129 63/58/130 56/59/131 55/60/132
s off
f 55/100/133 56/99/134 50/50/135 49/101/136
s 15
f 50/50/137 56/59/138 63/58/139 64/51/140
s 16
f 55/60/141 49/49/142 61/97/143 62/57/144
f 58/61/145 57/62/146 51/53/147 53/56/148
s 14
f 53/56/149 54/55/150 59/63/151 58/61/152
s 15
f 60/64/153 59/63/154 54/55/155 52/54/156
s 13
f 57/98/157 60/64/158 52/54/159 51/149/160
s 16
f 62/57/144 61/97/143 57/62/146 58/61/145
s 14
f 58/61/152 59/63/151 63/58/130 62/57/129
s 15
f 64/51/140 63/58/139 59/63/154 60/64/153
s 13
f 61/52/124 64/51/123 60/64/158 57/98/157
s 17
f 65/135/161 66/66/162 82/67/163 81/122/164
f 66/66/162 67/69/165 83/70/166 82/67/163
f 67/69/165 68/146/167 84/133/168 83/70/166
f 68/146/167 69/145/169 85/132/170 84/133/168
f 69/145/169 70/144/171 86/131/172 85/132/170
f 70/144/171 71/77/173 87/78/174 86/131/172
f 71/77/173 72/79/175 88/80/176 87/78/174
f 72/79/175 73/141/177 89/128/178 88/80/176
f 73/141/177 74/117/179 90/120/180 89/128/178
f 74/118/179 75/140/181 91/127/182 90/119/180
f 75/140/181 76/139/183 92/126/184 91/127/182
f 76/139/183 77/138/185 93/125/186 92/126/184
f 77/138/185 78/137/187 94/124/188 93/125/186
f 78/137/187 79/93/189 95/94/190 94/124/188
f 79/93/189 80/95/191 96/96/192 95/94/190
f 80/95/191 65/135/161 81/122/164 96/96/192
s off
f 68/71/193 67/69/194 76/87/195 75/85/196
f 67/69/197 66/66/198 77/89/199 76/87/200
f 69/73/201 68/71/202 75/85/203 74/83/204
f 70/75/205 69/73/206 74/83/207 73/81/208
f 71/143/209 70/75/210 73/81/211 72/142/212
f 66/66/213 65/65/214 78/91/215 77/89/216
f 79/136/217 78/91/218 65/65/219 80/134/220
f 83/70/221 84/72/222 91/86/223 92/88/224
f 82/67/225 83/70/226 92/88/227 93/90/228
f 84/72/229 85/74/230 90/84/231 91/86/232
f 85/74/233 86/76/234 89/82/235 90/84/236
f 86/76/237 87/130/238 88/129/239 89/82/240
f 81/68/241 82/67/242 93/90/243 94/92/244
f 94/92/245 95/123/246 96/121/247 81/68/248
